<svg width="243" height="176" viewBox="0 0 243 176" fill="none" xmlns="http://www.w3.org/2000/svg">
<g clip-path="url(#clip0_416_43281)">
<path fill-rule="evenodd" clip-rule="evenodd" d="M94.251 7.36843C94.251 6.78708 94.7225 6.3158 95.3041 6.3158H104.571C105.153 6.3158 105.624 6.78708 105.624 7.36843V70.1053C105.624 70.6866 105.153 71.1579 104.571 71.1579H95.3041C94.7225 71.1579 94.251 70.6866 94.251 70.1053C94.251 69.5239 94.7225 69.0526 95.3041 69.0526H100.991C102.163 69.0526 103.518 67.7812 103.518 65.8948V10.3158C103.518 9.04604 102.783 8.42106 102.044 8.42106H95.3041C94.7225 8.42106 94.251 7.94978 94.251 7.36843Z" fill="#555555"/>
<path d="M130.478 6.94737C128.793 6.52632 127.108 6.31579 125.423 6.31579C124.791 6.31579 124.37 6.73684 124.37 7.36842V26.3158C124.37 26.9474 123.738 27.5789 123.106 27.5789H118.052C117.209 27.5789 116.577 26.9474 116.577 26.1053V7.36842V1.05263C116.788 0.421053 116.156 0 115.735 0C115.313 0 114.682 0.421053 114.682 1.05263V7.36842V28.6316V70.1053C114.682 70.7368 115.103 71.1579 115.735 71.1579H121.421C122.053 71.1579 122.475 70.7368 122.475 70.1053C122.475 69.4737 122.053 69.0526 121.421 69.0526H118.683C117.63 69.0526 116.788 67.7895 116.788 66.1053V34.5263C116.788 32 118.894 29.8947 121.421 29.8947H123.949C124.159 29.8947 124.581 30.1053 124.581 30.5263V50.3158C124.581 50.9474 125.002 51.3684 125.634 51.3684C138.06 51.3684 147.959 41.2632 147.959 29.0526C147.749 18.3158 140.798 9.26316 130.478 6.94737ZM126.476 10.3158C126.476 9.26316 127.529 8.42105 128.582 8.63158C129.004 8.63158 129.636 8.84211 130.057 8.84211C138.481 10.7368 144.589 17.6842 145.642 26.1053C145.642 26.9474 145.011 27.5789 144.379 27.5789H126.687L126.476 10.3158ZM128.372 48.8421C127.319 49.0526 126.476 48.2105 126.476 47.1579V29.6842H143.326C144.589 29.6842 145.642 30.7368 145.432 32C143.958 40.8421 137.007 47.579 128.372 48.8421Z" fill="#555555"/>
<path d="M20.4299 100H13.6902C13.2689 100 12.8477 100.421 12.8477 100.842V120.421C12.8477 120.842 12.4265 121.263 12.0052 121.263H8.84595C8.42472 121.263 8.00348 120.842 8.00348 120.421V100.842C8.00348 100.421 7.58225 100 7.16101 100H0.842472C0.421236 100 0 99.7896 0 99.3685V96.6317C0 96.2106 0.421236 95.7896 0.842472 95.7896H20.4299C20.8512 95.7896 21.2724 96.2106 21.2724 96.6317V99.3685C21.0618 99.7896 20.8512 100 20.4299 100Z" fill="#333333"/>
<path d="M27.8018 120.421V96.4211C27.8018 96 28.223 95.579 28.6442 95.579H39.1751C40.4388 95.579 41.4919 95.7895 42.3344 96.2106C43.3875 96.6316 44.23 97.2632 44.8618 98.1053C45.4937 98.9474 46.1255 99.7895 46.5468 100.842C46.968 101.895 47.1786 102.947 47.1786 104C47.1786 105.684 46.7574 107.158 45.9149 108.421C45.283 109.474 44.4406 110.316 43.3875 110.947C42.9662 111.158 42.7556 111.579 43.1769 112L47.8105 119.79C48.0211 120.211 47.8105 120.842 47.1786 120.842H43.3875C43.1769 120.842 42.9662 120.632 42.7556 120.421L37.9114 113.053C37.7008 112.842 37.4902 112.632 37.2796 112.632H33.4884C33.0672 112.632 32.646 113.053 32.646 113.474V120.421C32.646 120.842 32.2247 121.263 31.8035 121.263H28.4336C28.223 121.053 27.8018 120.842 27.8018 120.421ZM32.8566 107.579C32.8566 108 33.2778 108.421 33.6991 108.421H39.1751C39.5964 108.421 40.0176 108.211 40.4388 108C40.8601 107.79 41.0707 107.579 41.4919 107.158C41.7025 106.737 41.9132 106.316 42.1238 105.895C42.3344 105.474 42.3344 104.842 42.3344 104.211C42.3344 103.579 42.3344 103.158 42.1238 102.526C41.9132 102.105 41.7025 101.684 41.2813 101.263C40.8601 100.842 40.6495 100.632 40.2282 100.421C39.807 100.211 39.3857 100.211 38.9645 100.211H33.6991C33.2778 100.211 32.8566 100.632 32.8566 101.053V107.579V107.579Z" fill="#333333"/>
<path d="M65.9238 117.053C67.1875 117.053 68.03 116.842 68.8725 116.421C69.7149 116 70.3468 115.369 70.768 114.526C71.1893 113.684 71.6105 112.842 71.8211 112C72.0317 110.947 72.0317 109.895 72.0317 108.842V96.6317C72.0317 96.2106 72.453 95.7896 72.8742 95.7896H76.2441C76.6653 95.7896 77.0866 96.2106 77.0866 96.6317V108.842C77.0866 110.526 76.8759 112.211 76.4547 113.684C76.0335 115.158 75.4016 116.632 74.5592 117.684C73.7167 118.737 72.453 119.79 71.1893 120.421C69.7149 121.053 68.03 121.474 66.1344 121.474C64.0282 121.474 62.3433 121.053 60.869 120.421C59.3947 119.79 58.3416 118.737 57.4991 117.684C56.6566 116.632 56.0248 115.158 55.6035 113.684C55.1823 112.211 54.9717 110.526 54.9717 108.842V96.6317C54.9717 96.2106 55.3929 95.7896 55.8142 95.7896H59.184C59.6053 95.7896 60.0265 96.2106 60.0265 96.6317V108.842C60.0265 109.895 60.0265 110.947 60.2371 112C60.4477 113.053 60.869 113.895 61.2902 114.526C61.7115 115.369 62.3433 116 63.1858 116.421C64.0283 116.842 64.8707 117.053 65.9238 117.053Z" fill="#333333"/>
<path d="M103.413 117.684V120.421C103.413 120.842 102.992 121.263 102.571 121.263H86.3532C85.932 121.263 85.5107 120.842 85.5107 120.421V96.4211C85.5107 96 85.932 95.579 86.3532 95.579H102.15C102.571 95.579 102.992 96 102.992 96.4211V99.1579C102.992 99.579 102.571 100 102.15 100H91.1974C90.7762 100 90.355 100.421 90.355 100.842V105.474C90.355 105.895 90.7762 106.316 91.1974 106.316H100.465C100.886 106.316 101.307 106.737 101.307 107.158V109.684C101.307 110.105 100.886 110.526 100.465 110.526H91.1974C90.7762 110.526 90.355 110.947 90.355 111.368V116.421C90.355 116.842 90.7762 117.263 91.1974 117.263H102.36C102.992 116.842 103.413 117.263 103.413 117.684Z" fill="#333333"/>
<path d="M129.109 100H122.58C122.158 100 121.737 100.421 121.737 100.842V120.421C121.737 120.842 121.316 121.263 120.895 121.263H117.525C117.103 121.263 116.682 120.842 116.682 120.421V100.842C116.682 100.421 116.261 100 115.84 100H109.521C109.1 100 108.679 99.579 108.679 99.1579V96.4211C108.679 96 109.1 95.579 109.521 95.579H129.109C129.53 95.579 129.951 96 129.951 96.4211V99.1579C129.741 99.7895 129.53 100 129.109 100Z" fill="#333333"/>
<path d="M146.169 121.263C144.273 121.263 142.588 120.842 141.114 120.211C139.639 119.579 138.376 118.526 137.112 117.263C135.848 116 135.217 114.737 134.585 113.053C133.953 111.579 133.742 109.895 133.742 108.211C133.742 106.526 133.953 104.842 134.795 103.368C135.427 101.895 136.27 100.421 137.323 99.158C138.376 97.8948 139.85 97.0527 141.324 96.2106C142.799 95.3685 144.484 95.158 146.379 95.158C148.275 95.158 149.96 95.579 151.434 96.2106C152.908 97.0527 154.172 97.8948 155.225 99.158C156.278 100.421 157.121 101.684 157.753 103.368C158.384 104.842 158.595 106.526 158.595 108C158.595 109.684 158.384 111.368 157.753 112.842C157.121 114.316 156.278 115.79 155.225 116.842C154.172 118.105 152.908 118.947 151.223 119.579C149.749 121.053 148.064 121.263 146.169 121.263ZM138.797 108.421C138.797 109.474 139.008 110.526 139.218 111.579C139.639 112.632 140.061 113.474 140.693 114.316C141.324 115.158 142.167 115.79 143.009 116.211C143.852 116.632 144.905 116.842 146.169 116.842C147.432 116.842 148.485 116.632 149.328 116.211C150.17 115.79 151.013 115.158 151.645 114.316C152.277 113.474 152.698 112.632 153.119 111.579C153.54 110.526 153.54 109.474 153.54 108.421C153.54 107.368 153.33 106.316 153.119 105.263C152.908 104.211 152.277 103.368 151.645 102.526C151.013 101.684 150.17 101.053 149.328 100.632C148.485 100.211 147.432 100 146.169 100C144.905 100 143.852 100.211 143.009 100.632C142.167 101.053 141.324 101.684 140.693 102.526C140.061 103.368 139.639 104.211 139.218 105.263C139.008 106.316 138.797 107.368 138.797 108.421Z" fill="#333333"/>
<path d="M176.708 117.053C177.972 117.053 178.814 116.842 179.657 116.421C180.499 116 181.131 115.369 181.552 114.526C181.973 113.684 182.395 112.842 182.605 112C182.816 110.947 182.816 109.895 182.816 108.842V96.6317C182.816 96.2106 183.237 95.7896 183.658 95.7896H187.028C187.45 95.7896 187.871 96.2106 187.871 96.6317V108.842C187.871 110.526 187.66 112.211 187.239 113.684C186.818 115.158 186.186 116.632 185.343 117.684C184.501 118.737 183.237 119.79 181.973 120.421C180.499 121.053 178.814 121.474 176.919 121.474C174.812 121.474 173.127 121.053 171.653 120.421C170.179 119.79 169.126 118.737 168.283 117.684C167.441 116.632 166.809 115.158 166.388 113.684C165.966 112.211 165.756 110.526 165.756 108.842V96.6317C165.756 96.2106 166.177 95.7896 166.598 95.7896H169.968C170.389 95.7896 170.811 96.2106 170.811 96.6317V108.842C170.811 109.895 170.811 110.947 171.021 112C171.232 113.053 171.653 113.895 172.074 114.526C172.496 115.369 173.127 116 173.97 116.421C174.812 116.842 175.655 117.053 176.708 117.053Z" fill="#333333"/>
<path d="M196.506 120.421V96.4211C196.506 96 196.927 95.579 197.348 95.579H207.879C209.143 95.579 210.196 95.7895 211.038 96.2106C212.092 96.6316 212.934 97.2632 213.566 98.1053C214.198 98.9474 214.83 99.7895 215.251 100.842C215.672 101.895 215.883 102.947 215.883 104C215.883 105.684 215.461 107.158 214.619 108.421C213.987 109.474 213.145 110.316 212.092 110.947C211.67 111.158 211.46 111.579 211.881 112L216.515 119.79C216.725 120.211 216.515 120.842 215.883 120.842H212.092C211.881 120.842 211.67 120.632 211.46 120.421L206.405 113.053C206.194 112.842 205.984 112.632 205.773 112.632H202.193C201.771 112.632 201.35 113.053 201.35 113.474V120.421C201.35 120.842 200.929 121.263 200.508 121.263H197.138C196.716 121.053 196.506 120.842 196.506 120.421ZM201.35 107.579C201.35 108 201.771 108.421 202.193 108.421H207.669C208.09 108.421 208.511 108.211 208.932 108C209.354 107.79 209.564 107.579 209.985 107.158C210.196 106.737 210.407 106.316 210.617 105.895C210.828 105.474 210.828 104.842 210.828 104.211C210.828 103.579 210.828 103.158 210.617 102.526C210.407 102.105 210.196 101.684 209.775 101.263C209.354 100.842 209.143 100.632 208.722 100.421C208.3 100.211 207.879 100.211 207.458 100.211H202.193C201.771 100.211 201.35 100.632 201.35 101.053V107.579Z" fill="#333333"/>
<path d="M226.204 98.7369H224.308C223.887 98.7369 223.466 99.158 223.466 99.5791V105.684C223.466 106.105 223.045 106.526 222.624 106.526H220.939C220.517 106.526 220.096 106.105 220.096 105.684V99.5791C220.096 99.158 219.675 98.7369 219.254 98.7369H217.358C216.937 98.7369 216.516 98.3159 216.516 97.8948V96.2106C216.516 95.7896 216.937 95.3685 217.358 95.3685H225.783C226.204 95.3685 226.625 95.7896 226.625 96.2106V97.8948C227.047 98.5264 226.625 98.7369 226.204 98.7369ZM237.999 95.7896H241.369C241.79 95.7896 242.211 96.2106 242.211 96.6317V105.895C242.211 106.316 241.79 106.737 241.369 106.737H239.684C239.262 106.737 238.841 106.316 238.841 105.895V99.7896L236.735 104.632C236.524 104.842 236.314 105.053 236.103 105.053H234.629C234.418 105.053 233.997 104.842 233.997 104.632L231.891 99.7896V105.684C231.891 106.105 231.469 106.526 231.048 106.526H229.363C228.942 106.526 228.521 106.105 228.521 105.684V96.4212C228.521 96.0001 228.942 95.5791 229.363 95.5791H232.733C233.154 95.5791 233.365 95.7896 233.365 96.0001L235.261 101.053L237.156 96.0001C237.367 96.0001 237.577 95.7896 237.999 95.7896Z" fill="#333333"/>
<path d="M81.5088 174.947V174.526L82.3513 174.316C82.9831 174.105 83.1937 173.895 83.4044 173.474C83.615 173.053 83.615 172.632 83.615 172.211V150.316C83.615 149.684 83.615 149.263 83.4044 149.053C83.1937 148.632 82.7725 148.421 82.3513 148.211L81.5088 147.789V147.368H91.6184C95.8308 147.368 98.7795 148.211 100.675 149.684C102.571 151.158 103.413 153.263 103.413 155.789C103.413 157.474 102.992 158.737 102.36 160.211C101.517 161.474 100.254 162.526 98.5688 163.368C96.8839 164.211 94.3565 164.632 91.4078 164.632H89.9335V172.421C89.9335 173.474 90.5654 174.316 91.6184 174.526L92.8822 174.947V175.368H81.5088V174.947ZM89.9335 163.579H91.6184C92.8822 163.579 94.1459 163.368 94.9883 162.947C95.8308 162.526 96.4627 161.684 96.8839 160.632C97.3051 159.579 97.5158 157.895 97.5158 156C97.5158 153.895 97.3051 152.421 96.8839 151.368C96.4627 150.316 95.8308 149.474 94.7777 149.053C93.9352 148.632 92.6715 148.421 91.4078 148.421H89.9335V163.579V163.579Z" fill="#8F0339"/>
<path d="M104.677 174.947V174.526L105.098 174.316C106.151 173.895 106.573 173.263 106.573 172.21V149.895C106.573 149.263 106.362 148.842 106.151 148.632C105.941 148.421 105.52 148.21 104.888 148L104.256 147.789V147.368L111.838 145.474L112.259 145.895L112.049 151.789V166.105C112.049 167.158 112.049 168.21 112.049 169.263C112.049 170.316 112.049 171.368 112.049 172.21C112.049 172.842 112.259 173.263 112.47 173.474C112.681 173.895 113.102 174.105 113.523 174.316L114.155 174.526V174.947H104.677V174.947Z" fill="#8F0339"/>
<path d="M122.368 175.579C120.683 175.579 119.42 175.158 118.367 174.105C117.313 173.263 116.682 171.789 116.682 170.105C116.682 168.842 117.313 167.579 118.788 166.526C120.052 165.474 122.158 164.631 125.106 164C125.528 164 126.159 163.789 126.581 163.789C127.213 163.789 127.634 163.579 128.266 163.579V160.21C128.266 158.316 128.055 157.053 127.634 156.21C127.213 155.368 126.37 155.158 125.528 155.158C124.896 155.158 124.264 155.368 123.843 155.789C123.421 156.21 123.211 157.053 123 158.105V158.526C123 159.789 122.579 160.631 122.158 161.263C121.526 161.895 120.894 162.105 120.262 162.105C119.63 162.105 118.998 161.895 118.367 161.474C117.945 161.053 117.735 160.421 117.735 159.579C117.735 158.526 118.156 157.474 118.998 156.631C119.841 155.789 120.894 155.368 122.158 154.947C123.421 154.526 124.896 154.316 126.37 154.316C128.897 154.316 130.793 154.947 132.057 156.21C133.32 157.474 134.163 159.368 134.163 162.105V171.368C134.163 172.631 134.795 173.263 135.848 173.263H136.69L137.112 173.684C136.48 174.316 136.058 174.947 135.427 175.158C134.795 175.579 133.952 175.789 132.689 175.789C131.425 175.789 130.582 175.579 129.74 174.947C129.108 174.316 128.476 173.684 128.266 172.631C127.423 173.474 126.581 174.316 125.738 174.947C124.896 175.368 123.632 175.579 122.368 175.579ZM124.896 173.053C125.528 173.053 125.949 172.842 126.37 172.631C126.791 172.421 127.423 172 128.055 171.368V164.421C127.844 164.421 127.423 164.631 127.213 164.631C127.002 164.631 126.581 164.842 126.159 164.842C124.896 165.263 123.843 165.684 123 166.526C122.158 167.368 121.947 168.421 121.947 169.684C121.947 170.737 122.158 171.789 122.79 172.21C123.421 172.842 124.053 173.053 124.896 173.053Z" fill="#8F0339"/>
<path d="M137.744 174.947V174.526L138.376 174.316C139.429 174.105 139.85 173.263 139.85 172.21V159.158C139.85 158.526 139.85 158.105 139.64 157.895C139.429 157.684 139.008 157.474 138.587 157.263L137.955 157.053V156.632L145.116 154.105L145.537 154.526L145.958 157.053C147.011 156.21 148.064 155.579 149.328 154.947C150.592 154.316 151.856 154.105 152.909 154.105C154.804 154.105 156.068 154.526 157.121 155.579C158.174 156.632 158.595 158.105 158.595 160.21V172.21C158.595 173.263 159.227 173.895 160.28 174.316L160.702 174.526V174.947H150.802V174.526L151.434 174.316C152.487 174.105 152.909 173.263 152.909 172.21V158.947C152.909 157.263 152.066 156.21 150.171 156.21C148.907 156.21 147.643 156.842 146.169 158.105V172.421C146.169 173.474 146.59 174.105 147.643 174.526L148.064 174.737V175.158H137.744V174.947Z" fill="#8F0339"/>
</g>
<defs>
<clipPath id="clip0_416_43281">
<rect width="242.211" height="175.789" fill="white"/>
</clipPath>
</defs>
</svg>
