<svg width="127" height="20" viewBox="0 0 127 20" fill="none" xmlns="http://www.w3.org/2000/svg">
<path d="M4.77832 15H3.13086V6.40039H0.205078V5.00586H7.69727V6.40039H4.77832V15ZM12.5381 5.00586C13.3994 5.00586 14.1104 5.11068 14.6709 5.32031C15.236 5.52995 15.6553 5.84896 15.9287 6.27734C16.2067 6.70573 16.3457 7.25033 16.3457 7.91113C16.3457 8.40332 16.2546 8.82259 16.0723 9.16895C15.89 9.5153 15.6507 9.80241 15.3545 10.0303C15.0583 10.2581 14.7415 10.4404 14.4043 10.5771L17.2412 15H15.3887L12.9756 10.9941H11.3691V15H9.72852V5.00586H12.5381ZM12.4287 6.37305H11.3691V9.64062H12.5039C13.265 9.64062 13.8164 9.49935 14.1582 9.2168C14.5046 8.93424 14.6777 8.51725 14.6777 7.96582C14.6777 7.38704 14.4932 6.97689 14.124 6.73535C13.7594 6.49382 13.1943 6.37305 12.4287 6.37305ZM27.0176 5.00586V11.4727C27.0176 12.1699 26.8695 12.7943 26.5732 13.3457C26.2816 13.8971 25.8395 14.3346 25.2471 14.6582C24.6546 14.9772 23.9095 15.1367 23.0117 15.1367C21.7311 15.1367 20.7559 14.8018 20.0859 14.1318C19.4206 13.4574 19.0879 12.5618 19.0879 11.4453V5.00586H20.7285V11.3018C20.7285 12.1357 20.9245 12.751 21.3164 13.1475C21.7083 13.5439 22.2939 13.7422 23.0732 13.7422C23.611 13.7422 24.0485 13.6488 24.3857 13.4619C24.7275 13.2705 24.9782 12.9925 25.1377 12.6279C25.3018 12.2588 25.3838 11.8145 25.3838 11.2949V5.00586H27.0176ZM35.7344 15H30.0742V5.00586H35.7344V6.38672H31.7148V9.10059H35.4814V10.4746H31.7148V13.6123H35.7344V15ZM41.8604 15H40.2129V6.40039H37.2871V5.00586H44.7793V6.40039H41.8604V15ZM55.6836 9.98926C55.6836 10.7594 55.5856 11.4613 55.3896 12.0947C55.1982 12.7236 54.9089 13.266 54.5215 13.7217C54.1341 14.1729 53.6488 14.5215 53.0654 14.7676C52.4821 15.0137 51.7985 15.1367 51.0146 15.1367C50.2171 15.1367 49.5244 15.0137 48.9365 14.7676C48.3532 14.5215 47.8678 14.1706 47.4805 13.7148C47.0977 13.2591 46.8105 12.7145 46.6191 12.0811C46.4277 11.4476 46.332 10.7458 46.332 9.97559C46.332 8.94564 46.5007 8.04785 46.8379 7.28223C47.1797 6.51204 47.6969 5.91504 48.3896 5.49121C49.0869 5.06283 49.9665 4.84863 51.0283 4.84863C52.0674 4.84863 52.931 5.06055 53.6191 5.48438C54.3073 5.9082 54.8223 6.50521 55.1641 7.27539C55.5104 8.04102 55.6836 8.94564 55.6836 9.98926ZM48.0547 9.98926C48.0547 10.7594 48.1595 11.4271 48.3691 11.9922C48.5788 12.5527 48.9001 12.9857 49.333 13.291C49.7705 13.5918 50.3311 13.7422 51.0146 13.7422C51.7028 13.7422 52.2633 13.5918 52.6963 13.291C53.1292 12.9857 53.4482 12.5527 53.6533 11.9922C53.8584 11.4271 53.9609 10.7594 53.9609 9.98926C53.9609 8.81803 53.7262 7.90202 53.2568 7.24121C52.792 6.57585 52.0492 6.24316 51.0283 6.24316C50.3447 6.24316 49.7819 6.39355 49.3398 6.69434C48.9023 6.99512 48.5788 7.42578 48.3691 7.98633C48.1595 8.54232 48.0547 9.20996 48.0547 9.98926ZM66.1777 5.00586V11.4727C66.1777 12.1699 66.0296 12.7943 65.7334 13.3457C65.4417 13.8971 64.9997 14.3346 64.4072 14.6582C63.8148 14.9772 63.0697 15.1367 62.1719 15.1367C60.8913 15.1367 59.916 14.8018 59.2461 14.1318C58.5807 13.4574 58.248 12.5618 58.248 11.4453V5.00586H59.8887V11.3018C59.8887 12.1357 60.0846 12.751 60.4766 13.1475C60.8685 13.5439 61.4541 13.7422 62.2334 13.7422C62.7712 13.7422 63.2087 13.6488 63.5459 13.4619C63.8877 13.2705 64.1383 12.9925 64.2979 12.6279C64.4619 12.2588 64.5439 11.8145 64.5439 11.2949V5.00586H66.1777ZM72.0439 5.00586C72.9053 5.00586 73.6162 5.11068 74.1768 5.32031C74.7419 5.52995 75.1611 5.84896 75.4346 6.27734C75.7126 6.70573 75.8516 7.25033 75.8516 7.91113C75.8516 8.40332 75.7604 8.82259 75.5781 9.16895C75.3958 9.5153 75.1566 9.80241 74.8604 10.0303C74.5641 10.2581 74.2474 10.4404 73.9102 10.5771L76.7471 15H74.8945L72.4814 10.9941H70.875V15H69.2344V5.00586H72.0439ZM71.9346 6.37305H70.875V9.64062H72.0098C72.7708 9.64062 73.3223 9.49935 73.6641 9.2168C74.0104 8.93424 74.1836 8.51725 74.1836 7.96582C74.1836 7.38704 73.999 6.97689 73.6299 6.73535C73.2653 6.49382 72.7002 6.37305 71.9346 6.37305ZM81.8887 9.93457V5.00586H83.1602L84.4932 8.82715L85.8672 5.00586H87.1045V9.93457H86.2363V7.09082C86.2363 6.99967 86.2409 6.84473 86.25 6.62598C86.2637 6.40267 86.2728 6.22949 86.2773 6.10645H86.2227L84.7939 9.93457H84.0762L82.7158 6.10645H82.6611C82.6702 6.26139 82.6771 6.43457 82.6816 6.62598C82.6908 6.81283 82.6953 6.94499 82.6953 7.02246V9.93457H81.8887ZM79.0107 9.93457V5.7373H77.5889V5.00586H81.3008V5.7373H79.8652V9.93457H79.0107ZM91.9178 15V14.86L92.1978 14.762C92.3844 14.706 92.5058 14.622 92.5618 14.51C92.6271 14.398 92.6598 14.2487 92.6598 14.062V6.726C92.6598 6.53933 92.6271 6.39 92.5618 6.278C92.4964 6.166 92.3704 6.07733 92.1838 6.012L91.9178 5.9V5.76H95.3198C96.7104 5.76 97.7138 6.01667 98.3298 6.53C98.9551 7.034 99.2678 7.70133 99.2678 8.532C99.2678 9.064 99.1371 9.554 98.8758 10.002C98.6238 10.4407 98.2038 10.7907 97.6158 11.052C97.0278 11.3133 96.2344 11.444 95.2358 11.444H94.7598V14.02C94.7598 14.384 94.9418 14.622 95.3058 14.734L95.7258 14.86V15H91.9178ZM94.7598 11.164H95.2918C95.7491 11.164 96.1224 11.0893 96.4118 10.94C96.7011 10.7907 96.9158 10.5293 97.0558 10.156C97.1958 9.78267 97.2658 9.26467 97.2658 8.602C97.2658 7.93 97.1864 7.40733 97.0278 7.034C96.8784 6.66067 96.6544 6.404 96.3558 6.264C96.0571 6.11467 95.6838 6.04 95.2358 6.04H94.7598V11.164ZM99.6974 15V14.86L99.8654 14.804C100.201 14.692 100.369 14.4587 100.369 14.104V6.614C100.369 6.42733 100.332 6.28733 100.257 6.194C100.183 6.09133 100.052 6.01667 99.8654 5.97L99.6834 5.928V5.788L102.245 5.186L102.413 5.312L102.357 7.272V12.06C102.357 12.4053 102.357 12.7507 102.357 13.096C102.367 13.432 102.371 13.768 102.371 14.104C102.371 14.2907 102.409 14.4447 102.483 14.566C102.558 14.678 102.684 14.762 102.861 14.818L103.043 14.86V15H99.6974ZM105.569 15.21C105.027 15.21 104.57 15.056 104.197 14.748C103.833 14.44 103.651 13.9967 103.651 13.418C103.651 12.9793 103.875 12.578 104.323 12.214C104.771 11.8407 105.475 11.5607 106.437 11.374C106.586 11.346 106.754 11.318 106.941 11.29C107.127 11.2527 107.323 11.2153 107.529 11.178V10.072C107.529 9.43733 107.449 8.994 107.291 8.742C107.141 8.48067 106.903 8.35 106.577 8.35C106.353 8.35 106.175 8.42467 106.045 8.574C105.914 8.714 105.83 8.96133 105.793 9.316L105.765 9.47C105.746 9.87133 105.648 10.1653 105.471 10.352C105.293 10.5387 105.074 10.632 104.813 10.632C104.57 10.632 104.369 10.5573 104.211 10.408C104.052 10.2587 103.973 10.058 103.973 9.806C103.973 9.42333 104.103 9.10133 104.365 8.84C104.635 8.57867 104.99 8.38267 105.429 8.252C105.867 8.12133 106.343 8.056 106.857 8.056C107.687 8.056 108.327 8.26133 108.775 8.672C109.232 9.07333 109.461 9.73133 109.461 10.646V13.74C109.461 14.16 109.657 14.37 110.049 14.37H110.357L110.483 14.482C110.305 14.706 110.109 14.8787 109.895 15C109.689 15.1213 109.395 15.182 109.013 15.182C108.602 15.182 108.275 15.0887 108.033 14.902C107.799 14.706 107.645 14.4493 107.571 14.132C107.291 14.4307 107.001 14.6873 106.703 14.902C106.413 15.1073 106.035 15.21 105.569 15.21ZM106.423 14.356C106.609 14.356 106.782 14.314 106.941 14.23C107.109 14.1367 107.305 13.9967 107.529 13.81V11.458C107.435 11.4767 107.342 11.4953 107.249 11.514C107.155 11.5327 107.048 11.5513 106.927 11.57C106.497 11.682 106.152 11.8733 105.891 12.144C105.639 12.4053 105.513 12.76 105.513 13.208C105.513 13.5907 105.601 13.88 105.779 14.076C105.956 14.2627 106.171 14.356 106.423 14.356ZM110.743 15V14.86L110.939 14.804C111.266 14.7107 111.429 14.482 111.429 14.118V9.736C111.429 9.53067 111.397 9.38133 111.331 9.288C111.266 9.18533 111.14 9.11533 110.953 9.078L110.743 9.022V8.882L113.137 8.07L113.277 8.21L113.389 9.05C113.716 8.76067 114.085 8.52267 114.495 8.336C114.906 8.14933 115.312 8.056 115.713 8.056C116.329 8.056 116.801 8.224 117.127 8.56C117.463 8.896 117.631 9.40933 117.631 10.1V14.132C117.631 14.496 117.809 14.7247 118.163 14.818L118.289 14.86V15H114.985V14.86L115.167 14.804C115.494 14.7013 115.657 14.4727 115.657 14.118V9.652C115.657 9.05467 115.359 8.756 114.761 8.756C114.351 8.756 113.903 8.96133 113.417 9.372V14.132C113.417 14.496 113.581 14.7247 113.907 14.818L114.033 14.86V15H110.743Z" fill="#555555"/>
</svg>
