<svg width="154" height="71" viewBox="0 0 154 71" fill="none" xmlns="http://www.w3.org/2000/svg">
<path d="M76.2663 8.44299V8.68685H73.9463V5.21185H76.2052V5.39475H74.1905V6.73598H75.961V6.97983H74.1905V8.44299H76.2663Z" fill="#333333"/>
<path d="M79.1364 5.76052C78.8922 5.51666 78.5869 5.39473 78.1596 5.39473C77.7933 5.39473 77.549 5.45569 77.4269 5.57762C77.2438 5.69955 77.1827 5.88245 77.1827 6.12631C77.1827 6.24824 77.1827 6.3092 77.2438 6.43113C77.3048 6.4921 77.3659 6.55306 77.4269 6.61403C77.488 6.67499 77.6101 6.73596 77.7322 6.73596C77.8543 6.79692 78.0375 6.79692 78.1596 6.85789C78.3427 6.91885 78.5259 6.91885 78.648 6.97981C78.7701 7.04078 78.9533 7.10175 79.0143 7.16271C79.0754 7.22368 79.1975 7.3456 79.2585 7.40657C79.3196 7.5285 79.3196 7.65043 79.3196 7.77236C79.3196 7.95526 79.3196 8.07718 79.2585 8.19911C79.1975 8.32104 79.1364 8.38201 79.0143 8.50394C78.8922 8.5649 78.7701 8.62587 78.648 8.68683C78.5259 8.7478 78.3427 8.7478 78.1596 8.7478C77.6101 8.7478 77.1827 8.5649 76.8164 8.26008L76.9385 8.07718C77.0606 8.26008 77.2438 8.32104 77.488 8.44297C77.6712 8.50394 77.9154 8.5649 78.2206 8.5649C78.5259 8.5649 78.7701 8.50394 78.9533 8.38201C79.1364 8.26008 79.1975 8.07718 79.1975 7.89429C79.1975 7.77236 79.1975 7.71139 79.1364 7.58946C79.0754 7.5285 79.0143 7.46753 78.9533 7.40657C78.8922 7.3456 78.7701 7.28464 78.5869 7.28464C78.4648 7.22367 78.2817 7.22368 78.0985 7.16271C77.9154 7.10175 77.7322 7.10175 77.6101 7.04078C77.488 6.97982 77.3659 6.91885 77.2438 6.85789C77.1217 6.79692 77.0606 6.73596 76.9996 6.61403C76.9385 6.4921 76.9385 6.43113 76.9385 6.24824C76.9385 6.06534 76.9385 5.94341 76.9996 5.82148C77.0606 5.69955 77.1217 5.57762 77.2438 5.51666C77.3659 5.45569 77.488 5.39473 77.6101 5.33376C77.7322 5.2728 77.9154 5.2728 78.0985 5.2728C78.3427 5.2728 78.5259 5.33376 78.7091 5.39473C78.8922 5.45569 79.0143 5.57762 79.1975 5.69955L79.1364 5.76052Z" fill="#333333"/>
<path d="M82.7381 5.39474H81.456V8.62588H81.2118V5.39474H79.9297V5.15088H82.7381V5.39474Z" fill="#333333"/>
<path d="M72.7256 14.4785C72.7256 14.3566 72.7256 14.2956 72.7256 14.1737C72.7256 14.0518 72.7866 13.9298 72.8477 13.8079C72.9087 13.686 72.9698 13.564 73.0919 13.5031C73.214 13.3812 73.3361 13.3202 73.5193 13.1983C73.5803 13.1373 73.7024 13.1373 73.7635 13.0763C73.8856 13.0154 73.9466 12.9544 74.0687 12.8934C74.1908 12.8325 74.2519 12.7715 74.313 12.7105C74.374 12.6496 74.4351 12.5276 74.4351 12.4057C74.4351 12.3447 74.435 12.2838 74.374 12.2228C74.374 12.1618 74.3129 12.1009 74.2519 12.0399C74.1908 11.979 74.1298 11.918 74.0687 11.918C74.0077 11.857 73.8856 11.857 73.7635 11.857C73.6414 11.857 73.5193 11.857 73.4582 11.918C73.3972 11.979 73.2751 11.979 73.214 12.0399C73.153 12.1009 73.0919 12.1009 73.0308 12.1618C72.9698 12.2228 72.9698 12.2228 72.9087 12.2838L72.7256 12.1009C72.7866 12.0399 72.7866 12.0399 72.9087 11.979C73.0308 11.918 73.0308 11.857 73.153 11.857C73.2751 11.857 73.3361 11.7961 73.4582 11.7351C73.5803 11.6741 73.7024 11.6741 73.8245 11.6741C73.9466 11.6741 74.0687 11.6741 74.1908 11.7351C74.3129 11.7961 74.374 11.857 74.4961 11.918C74.6182 11.979 74.6182 12.1009 74.6793 12.1618C74.7403 12.2838 74.7403 12.3447 74.7403 12.4667C74.7403 12.5886 74.7403 12.7105 74.6793 12.8325C74.6182 12.9544 74.5572 13.0154 74.4351 13.0763C74.374 13.1373 74.2519 13.1983 74.1298 13.2592C74.0077 13.3202 73.9466 13.3202 73.8245 13.3811C73.6414 13.4421 73.5193 13.5031 73.4582 13.564C73.3361 13.625 73.2751 13.686 73.214 13.8079C73.153 13.8689 73.0919 13.9908 73.0919 14.0518C73.0919 14.1127 73.0308 14.2347 73.0308 14.2956H74.8014V14.5395H72.7256V14.4785Z" fill="#333333"/>
<path d="M77.9758 13.0763C77.9758 13.3202 77.9147 13.5031 77.8537 13.686C77.7926 13.8689 77.7316 14.0517 77.6095 14.1737C77.4874 14.2956 77.3653 14.4175 77.2432 14.4785C77.121 14.5395 76.9379 14.6004 76.7547 14.6004C76.5716 14.6004 76.3884 14.5395 76.2663 14.4785C76.1442 14.4175 75.961 14.2956 75.9 14.1737C75.8389 14.0517 75.7168 13.8689 75.6558 13.686C75.5947 13.5031 75.5947 13.3202 75.5947 13.0763C75.5947 12.8324 75.5947 12.6496 75.6558 12.4667C75.7168 12.2838 75.7779 12.1009 75.9 11.9789C76.0221 11.857 76.1442 11.7351 76.2663 11.6741C76.3884 11.6132 76.5716 11.5522 76.7547 11.5522C76.9379 11.5522 77.121 11.6132 77.2432 11.6741C77.3653 11.7351 77.5484 11.857 77.6095 11.9789C77.7316 12.1009 77.7926 12.2838 77.8537 12.4667C77.9147 12.6496 77.9758 12.8324 77.9758 13.0763ZM77.7316 13.0763C77.7316 12.8934 77.7316 12.7105 77.6705 12.5886C77.6095 12.4057 77.5484 12.2838 77.4874 12.2228C77.4263 12.1618 77.3042 12.0399 77.1821 11.9789C77.06 11.918 76.9379 11.857 76.8158 11.857C76.6937 11.857 76.5105 11.918 76.4495 11.9789C76.3274 12.0399 76.2053 12.1009 76.1442 12.2228C76.0832 12.3447 76.0221 12.4667 75.961 12.5886C75.9 12.7715 75.9 12.8934 75.9 13.0763C75.9 13.2592 75.9 13.4421 75.961 13.564C76.0221 13.7469 76.0832 13.8689 76.1442 13.9298C76.2053 14.0517 76.3274 14.1127 76.4495 14.1737C76.5716 14.2346 76.6937 14.2346 76.8158 14.2346C76.9379 14.2346 77.06 14.2346 77.1821 14.1737C77.3042 14.1127 77.4263 14.0517 77.4874 13.9298C77.5484 13.8079 77.6095 13.686 77.6705 13.564C77.6705 13.4421 77.7316 13.2592 77.7316 13.0763Z" fill="#333333"/>
<path d="M80.3574 14.2956V14.5395H78.8311V14.2956H79.5027V12.0399C79.5027 12.1009 79.4416 12.1009 79.3806 12.1618C79.3195 12.2228 79.2585 12.2228 79.1974 12.2838C79.1364 12.3447 79.0142 12.3447 78.9532 12.4057C78.8921 12.4057 78.77 12.4667 78.709 12.4667V12.2228C78.77 12.2228 78.8921 12.2228 78.9532 12.1618C79.0142 12.1009 79.1364 12.0399 79.1974 12.0399C79.2585 11.9789 79.3195 11.918 79.3806 11.857C79.4416 11.7961 79.4416 11.7961 79.4416 11.7961H79.6858V14.3566H80.3574V14.2956Z" fill="#333333"/>
<path d="M83.4709 13.0763C83.4709 13.3202 83.4098 13.5031 83.3488 13.686C83.2877 13.8689 83.2267 14.0517 83.1046 14.1737C82.9825 14.2956 82.8604 14.4175 82.7383 14.4785C82.6161 14.5395 82.433 14.6004 82.2498 14.6004C82.0667 14.6004 81.8835 14.5395 81.7614 14.4785C81.6393 14.4175 81.4562 14.2956 81.3951 14.1737C81.3341 14.0517 81.212 13.8689 81.1509 13.686C81.0898 13.5031 81.0898 13.3202 81.0898 13.0763C81.0898 12.8324 81.0898 12.6496 81.1509 12.4667C81.212 12.2838 81.273 12.1009 81.3951 11.9789C81.5172 11.857 81.6393 11.7351 81.7614 11.6741C81.8835 11.6132 82.0667 11.5522 82.2498 11.5522C82.433 11.5522 82.6161 11.6132 82.7383 11.6741C82.8604 11.7351 83.0435 11.857 83.1046 11.9789C83.2267 12.1009 83.2877 12.2838 83.3488 12.4667C83.4098 12.6496 83.4709 12.8324 83.4709 13.0763ZM83.2267 13.0763C83.2267 12.8934 83.2267 12.7105 83.1656 12.5886C83.1046 12.4057 83.0435 12.2838 82.9825 12.2228C82.9214 12.1618 82.7993 12.0399 82.6772 11.9789C82.5551 11.918 82.433 11.857 82.3109 11.857C82.1888 11.857 82.0056 11.918 81.9446 11.9789C81.8225 12.0399 81.7004 12.1009 81.6393 12.2228C81.5783 12.3447 81.5172 12.4667 81.4562 12.5886C81.3951 12.7715 81.3951 12.8934 81.3951 13.0763C81.3951 13.2592 81.3951 13.4421 81.4562 13.564C81.5172 13.7469 81.5783 13.8689 81.6393 13.9298C81.7004 14.0517 81.8225 14.1127 81.9446 14.1737C82.0667 14.2346 82.1888 14.2346 82.3109 14.2346C82.433 14.2346 82.5551 14.2346 82.6772 14.1737C82.7993 14.1127 82.9214 14.0517 82.9825 13.9298C83.0435 13.8079 83.1046 13.686 83.1656 13.564C83.1656 13.4421 83.2267 13.2592 83.2267 13.0763Z" fill="#333333"/>
<path d="M57.4307 2.23109L56.999 2.66217L99.9103 45.5118L100.342 45.0807L57.4307 2.23109Z" fill="#333333"/>
<path d="M99.3595 2.22874L56.4482 45.0784L56.8799 45.5095L99.7912 2.65982L99.3595 2.22874Z" fill="#333333"/>
<path d="M78.5263 32.8289H78.2821L78.16 32.707L48 2.6513L48.4274 2.22455L78.4042 32.0974L108.32 2.22455L108.747 2.6513L78.5263 32.8289Z" fill="#333333"/>
<path d="M78.4034 48.6189C65.0329 48.6189 54.1045 37.7671 54.1045 24.3548C54.1045 11.0035 64.9719 0.0907898 78.4034 0.0907898C91.774 0.0907898 102.702 10.9425 102.702 24.3548C102.702 37.7671 91.774 48.6189 78.4034 48.6189ZM78.4034 0.761405C65.3382 0.761405 54.715 11.3693 54.715 24.4158C54.715 37.4623 65.3382 48.0702 78.4034 48.0702C91.4687 48.0702 102.092 37.4623 102.092 24.4158C102.092 11.3693 91.4687 0.761405 78.4034 0.761405Z" fill="#333333"/>
<path d="M59.6603 23.5623L62.6519 30.6342L65.6435 23.5623H66.254L62.9571 31.3658H62.4687L59.1719 23.5623H59.6603Z" fill="#333333"/>
<path d="M97.6353 31.3048V24.5987L94.5827 29.8417H94.2163L91.1637 24.5987V31.3658H90.6143V23.5623H91.1637L94.3995 29.1101L97.6353 23.5623H98.1848V31.3658H97.6353V31.3048Z" fill="#333333"/>
<path d="M1.90482 60.2022L5.20167 68.8592L8.43745 60.2022H10.269L5.9343 71.054H4.46903L0.0732422 60.2022H1.90482Z" fill="#333333"/>
<path d="M13.0771 70.993V60.2022H14.7866V70.993H13.0771Z" fill="#333333"/>
<path d="M25.1656 62.7627C25.0435 62.6408 24.9214 62.5189 24.7383 62.3969C24.5551 62.275 24.3109 62.1531 24.0667 62.0311C23.8225 61.9092 23.5172 61.8482 23.2119 61.7263C22.9067 61.6654 22.5404 61.6044 22.2351 61.6044C21.5635 61.6044 21.0751 61.7263 20.7088 62.0311C20.3425 62.275 20.1593 62.6408 20.1593 63.1285C20.1593 63.3724 20.2204 63.6162 20.3425 63.7991C20.4646 63.982 20.6477 64.104 20.8309 64.2259C21.0751 64.3478 21.3193 64.4697 21.6856 64.5307C21.9909 64.6526 22.4183 64.7136 22.8456 64.8355C23.3951 64.9575 23.8835 65.1404 24.3109 65.2623C24.7382 65.3842 25.1046 65.6281 25.4709 65.811C25.7761 66.0548 26.0204 66.2987 26.2035 66.6645C26.3867 67.0303 26.4477 67.3961 26.4477 67.9447C26.4477 68.4934 26.3256 68.9811 26.1425 69.4079C25.8982 69.7737 25.654 70.1395 25.2877 70.3833C24.9214 70.6272 24.494 70.8101 24.0056 70.932C23.5172 71.054 23.0288 71.1149 22.4793 71.1149C21.6246 71.1149 20.8309 70.993 20.0983 70.7491C19.3046 70.5053 18.633 70.1395 18.0225 69.6518L18.8161 68.1886C18.9382 68.3105 19.1214 68.4934 19.3656 68.6154C19.6098 68.7983 19.9151 68.9202 20.2204 69.0421C20.5256 69.164 20.8919 69.286 21.3193 69.4079C21.6856 69.5298 22.113 69.5298 22.5404 69.5298C23.2119 69.5298 23.7004 69.4079 24.0667 69.164C24.433 68.9202 24.6161 68.5544 24.6161 68.1276C24.6161 67.8838 24.5551 67.6399 24.433 67.457C24.3109 67.2741 24.1277 67.0912 23.8835 66.9693C23.6393 66.8474 23.334 66.7254 22.9677 66.6035C22.6014 66.4816 22.174 66.3597 21.6856 66.2377C21.1361 66.1158 20.6477 65.9329 20.2814 65.811C19.854 65.6281 19.5488 65.4452 19.3046 65.2623C19.0604 65.0184 18.8161 64.7746 18.694 64.4697C18.5719 64.1649 18.5109 63.7991 18.5109 63.3724C18.5109 62.8237 18.633 62.3969 18.8161 61.9702C18.9993 61.5434 19.3046 61.2386 19.6709 60.9338C20.0372 60.629 20.4646 60.4461 20.8919 60.3241C21.3804 60.2022 21.8688 60.1412 22.4182 60.1412C23.1509 60.1412 23.8835 60.2632 24.494 60.507C25.1046 60.7509 25.654 61.0557 26.1425 61.3605L25.1656 62.7627Z" fill="#333333"/>
<path d="M29.623 70.993V60.2022H31.3325V70.993H29.623Z" fill="#333333"/>
<path d="M43.2379 61.7263H39.6358V71.054H37.9263V61.7263H34.3242V60.2022H43.2379V61.7263Z" fill="#333333"/>
<path d="M46.29 70.993V60.2022H47.9995V70.993H46.29Z" fill="#333333"/>
<path d="M53.6772 63.3724V70.993H51.9678V60.1412H53.3109L59.4773 67.9447V60.1412H61.1867V70.932H59.7825L53.6772 63.3724Z" fill="#333333"/>
<path d="M72.6649 69.6517C71.7491 70.5662 70.7723 71.0539 69.5512 71.0539C68.8797 71.0539 68.2081 70.871 67.5976 70.5662C66.987 70.2614 66.4375 69.8346 66.0102 69.3469C65.5828 68.8592 65.2165 68.2496 64.9112 67.5789C64.606 66.9083 64.5449 66.2377 64.5449 65.5061C64.5449 64.7746 64.667 64.1039 64.9112 63.4333C65.1554 62.7627 65.5218 62.214 66.0102 61.7263C66.4375 61.2386 66.987 60.8118 67.5976 60.568C68.2081 60.2632 68.8797 60.1412 69.6123 60.1412C70.6502 60.1412 71.5049 60.3851 72.1765 60.8118C72.8481 61.2386 73.3975 61.7873 73.7639 62.5189L72.4207 63.4333C72.1154 62.8237 71.7491 62.3969 71.1997 62.0921C70.6502 61.7873 70.1618 61.6654 69.5512 61.6654C69.0628 61.6654 68.5744 61.7873 68.2081 61.9702C67.7807 62.214 67.4754 62.4579 67.1702 62.8237C66.8649 63.1895 66.6818 63.6162 66.4986 64.104C66.3154 64.5917 66.2544 65.0794 66.2544 65.6281C66.2544 66.1768 66.3154 66.6645 66.4986 67.1522C66.6818 67.6399 66.926 68.0667 67.2312 68.3715C67.5365 68.7373 67.9028 68.9811 68.3302 69.225C68.7576 69.4689 69.1849 69.5298 69.6733 69.5298C70.7723 69.5298 71.7491 68.9811 72.6649 67.9447V66.7864H70.406V65.5061H74.1302V70.993H72.726V69.6517H72.6649Z" fill="#333333"/>
<path d="M93.1781 70.993V61.6654L88.9044 68.9811H88.416L84.1423 61.6654V70.993H83.3486V60.1412H84.1423L88.6602 67.8838L93.1781 60.1412H93.9718V70.993H93.1781Z" fill="#333333"/>
<path d="M110.15 70.3224V71.054H102.946V60.2022H110.028V60.9338H103.74V65.2013H109.235V65.8719H103.74V70.3833H110.15V70.3224Z" fill="#333333"/>
<path d="M118.393 70.993V60.1412H121.995C122.849 60.1412 123.582 60.2632 124.254 60.568C124.925 60.8728 125.414 61.2386 125.841 61.7263C126.268 62.214 126.574 62.7627 126.818 63.4333C127.001 64.1039 127.123 64.7746 127.123 65.5061C127.123 66.3596 127.001 67.0912 126.757 67.7618C126.513 68.4324 126.146 68.9811 125.719 69.4689C125.292 69.9566 124.742 70.3224 124.07 70.5662C123.46 70.8101 122.727 70.932 121.934 70.932H118.393V70.993ZM126.39 65.5671C126.39 64.8965 126.268 64.2868 126.085 63.6772C125.902 63.0675 125.597 62.5798 125.23 62.214C124.864 61.7873 124.376 61.4825 123.887 61.2386C123.338 60.9947 122.727 60.8728 122.056 60.8728H119.247V70.2614H122.056C122.788 70.2614 123.399 70.1395 123.948 69.8956C124.498 69.6517 124.925 69.3469 125.292 68.9202C125.658 68.4934 125.963 68.0057 126.146 67.396C126.268 66.9083 126.39 66.2377 126.39 65.5671Z" fill="#333333"/>
<path d="M135.487 70.993V60.2022H136.281V70.993H135.487Z" fill="#333333"/>
<path d="M144.096 70.993L148.675 60.1412H149.285L153.925 70.993H153.07L151.544 67.457H146.355L144.828 70.993H144.096ZM148.98 61.1167L146.538 66.7864H151.3L148.98 61.1167Z" fill="#333333"/>
</svg>
