<svg width="198" height="17" viewBox="0 0 198 17" fill="none" xmlns="http://www.w3.org/2000/svg">
<path d="M12.8911 3.27733H8.79335C8.53724 3.27733 8.28112 3.53333 8.28112 3.78933V15.6933C8.28112 15.9493 8.02501 16.2053 7.7689 16.2053H5.84807C5.59195 16.2053 5.33584 15.9493 5.33584 15.6933V3.78933C5.33584 3.53333 5.07973 3.27733 4.82362 3.27733H0.981949C0.725838 3.27733 0.469727 3.14933 0.469727 2.89333V1.22933C0.469727 0.973333 0.725838 0.717331 0.981949 0.717331H12.8911C13.1472 0.717331 13.4034 0.973333 13.4034 1.22933V2.89333C13.2753 3.14933 13.1472 3.27733 12.8911 3.27733Z" fill="#555555"/>
<path d="M17.373 15.6933V1.10133C17.373 0.845327 17.6292 0.589325 17.8853 0.589325H24.2881C25.0564 0.589325 25.6967 0.717324 26.2089 0.973324C26.8492 1.22932 27.3614 1.61333 27.7456 2.12533C28.1297 2.63733 28.5139 3.14933 28.77 3.78933C29.0261 4.42933 29.1542 5.06933 29.1542 5.70933C29.1542 6.73333 28.8981 7.62932 28.3858 8.39732C28.0017 9.03732 27.4894 9.54932 26.8492 9.93332C26.5931 10.0613 26.465 10.3173 26.7211 10.5733L29.5383 15.3093C29.6664 15.5653 29.5383 15.9493 29.1542 15.9493H26.8492C26.7211 15.9493 26.5931 15.8213 26.465 15.6933L23.5197 11.2133C23.3917 11.0853 23.2636 10.9573 23.1356 10.9573H20.8306C20.5744 10.9573 20.3183 11.2133 20.3183 11.4693V15.6933C20.3183 15.9493 20.0622 16.2053 19.8061 16.2053H17.7572C17.6292 16.0773 17.373 15.9493 17.373 15.6933ZM20.4464 7.88533C20.4464 8.14133 20.7025 8.39732 20.9586 8.39732H24.2881C24.5442 8.39732 24.8003 8.26933 25.0564 8.14133C25.3125 8.01333 25.4406 7.88533 25.6967 7.62933C25.8247 7.37333 25.9528 7.11733 26.0808 6.86133C26.2089 6.60533 26.2089 6.22132 26.2089 5.83732C26.2089 5.45332 26.2089 5.19732 26.0808 4.81332C25.9528 4.55732 25.8247 4.30133 25.5686 4.04533C25.3125 3.78933 25.1844 3.66132 24.9283 3.53332C24.6722 3.40532 24.4161 3.40533 24.16 3.40533H20.9586C20.7025 3.40533 20.4464 3.66132 20.4464 3.91732V7.88533Z" fill="#555555"/>
<path d="M40.5515 13.6454C41.3198 13.6454 41.832 13.5174 42.3443 13.2614C42.8565 13.0054 43.2406 12.6214 43.4968 12.1094C43.7529 11.5974 44.009 11.0854 44.137 10.5734C44.2651 9.93336 44.2651 9.29336 44.2651 8.65336V1.22936C44.2651 0.973363 44.5212 0.717361 44.7773 0.717361H46.8262C47.0823 0.717361 47.3384 0.973363 47.3384 1.22936V8.65336C47.3384 9.67736 47.2104 10.7014 46.9543 11.5974C46.6981 12.4934 46.314 13.3894 45.8018 14.0294C45.2895 14.6694 44.5212 15.3094 43.7529 15.6934C42.8565 16.0774 41.832 16.3334 40.6795 16.3334C39.399 16.3334 38.3745 16.0774 37.4781 15.6934C36.5817 15.3094 35.9415 14.6694 35.4292 14.0294C34.917 13.3894 34.5329 12.4934 34.2767 11.5974C34.0206 10.7014 33.8926 9.67736 33.8926 8.65336V1.22936C33.8926 0.973363 34.1487 0.717361 34.4048 0.717361H36.4537C36.7098 0.717361 36.9659 0.973363 36.9659 1.22936V8.65336C36.9659 9.29336 36.9659 9.93336 37.094 10.5734C37.222 11.2134 37.4781 11.7254 37.7342 12.1094C37.9904 12.6214 38.3745 13.0054 38.8868 13.2614C39.399 13.5174 39.9112 13.6454 40.5515 13.6454Z" fill="#555555"/>
<path d="M63.3447 14.0293V15.6933C63.3447 15.9493 63.0886 16.2053 62.8325 16.2053H52.9722C52.7161 16.2053 52.46 15.9493 52.46 15.6933V1.10133C52.46 0.845327 52.7161 0.589325 52.9722 0.589325H62.5764C62.8325 0.589325 63.0886 0.845327 63.0886 1.10133V2.76533C63.0886 3.02133 62.8325 3.27732 62.5764 3.27732H55.9175C55.6614 3.27732 55.4052 3.53333 55.4052 3.78933V6.60533C55.4052 6.86133 55.6614 7.11732 55.9175 7.11732H61.5519C61.808 7.11732 62.0641 7.37333 62.0641 7.62933V9.16533C62.0641 9.42133 61.808 9.67732 61.5519 9.67732H55.9175C55.6614 9.67732 55.4052 9.93333 55.4052 10.1893V13.2613C55.4052 13.5173 55.6614 13.7733 55.9175 13.7733H62.7044C63.0886 13.5173 63.3447 13.7733 63.3447 14.0293Z" fill="#555555"/>
<path d="M78.9683 3.27732H74.9986C74.7424 3.27732 74.4863 3.53333 74.4863 3.78933V15.6933C74.4863 15.9493 74.2302 16.2053 73.9741 16.2053H71.9252C71.6691 16.2053 71.413 15.9493 71.413 15.6933V3.78933C71.413 3.53333 71.1569 3.27732 70.9008 3.27732H67.0591C66.803 3.27732 66.5469 3.02133 66.5469 2.76533V1.10133C66.5469 0.845327 66.803 0.589325 67.0591 0.589325H78.9683C79.2244 0.589325 79.4805 0.845327 79.4805 1.10133V2.76533C79.3525 3.14933 79.2244 3.27732 78.9683 3.27732Z" fill="#555555"/>
<path d="M89.3404 16.2053C88.1879 16.2053 87.1635 15.9493 86.2671 15.5653C85.3707 15.1813 84.6024 14.5413 83.834 13.7733C83.0657 13.0053 82.6815 12.2373 82.2974 11.2133C81.9132 10.3173 81.7852 9.29333 81.7852 8.26933C81.7852 7.24533 81.9132 6.22133 82.4254 5.32533C82.8096 4.42933 83.3218 3.53333 83.9621 2.76533C84.6024 1.99733 85.4988 1.48533 86.3952 0.973328C87.2915 0.461328 88.316 0.333328 89.4685 0.333328C90.621 0.333328 91.6454 0.589328 92.5418 0.973328C93.4382 1.48533 94.2066 1.99733 94.8468 2.76533C95.4871 3.53333 95.9993 4.30133 96.3835 5.32533C96.7677 6.22133 96.8957 7.24533 96.8957 8.14133C96.8957 9.16533 96.7677 10.1893 96.3835 11.0853C95.9993 11.9813 95.4871 12.8773 94.8468 13.5173C94.2066 14.2853 93.4382 14.7973 92.4138 15.1813C91.5174 16.0773 90.4929 16.2053 89.3404 16.2053ZM84.8585 8.39733C84.8585 9.03733 84.9865 9.67733 85.1146 10.3173C85.3707 10.9573 85.6268 11.4693 86.011 11.9813C86.3952 12.4933 86.9074 12.8773 87.4196 13.1333C87.9318 13.3893 88.5721 13.5173 89.3404 13.5173C90.1088 13.5173 90.7491 13.3893 91.2613 13.1333C91.7735 12.8773 92.2857 12.4933 92.6699 11.9813C93.0541 11.4693 93.3102 10.9573 93.5663 10.3173C93.8224 9.67733 93.8224 9.03733 93.8224 8.39733C93.8224 7.75733 93.6943 7.11733 93.5663 6.47733C93.4382 5.83733 93.0541 5.32533 92.6699 4.81333C92.2857 4.30133 91.7735 3.91733 91.2613 3.66133C90.7491 3.40533 90.1088 3.27733 89.3404 3.27733C88.5721 3.27733 87.9318 3.40533 87.4196 3.66133C86.9074 3.91733 86.3952 4.30133 86.011 4.81333C85.6268 5.32533 85.3707 5.83733 85.1146 6.47733C84.9865 7.11733 84.8585 7.75733 84.8585 8.39733Z" fill="#555555"/>
<path d="M107.909 13.6454C108.677 13.6454 109.189 13.5174 109.702 13.2614C110.214 13.0054 110.598 12.6214 110.854 12.1094C111.11 11.5974 111.366 11.0854 111.494 10.5734C111.623 9.93336 111.623 9.29336 111.623 8.65336V1.22936C111.623 0.973363 111.879 0.717361 112.135 0.717361H114.184C114.44 0.717361 114.696 0.973363 114.696 1.22936V8.65336C114.696 9.67736 114.568 10.7014 114.312 11.5974C114.056 12.4934 113.671 13.3894 113.159 14.0294C112.647 14.6694 111.879 15.3094 111.11 15.6934C110.214 16.0774 109.189 16.3334 108.037 16.3334C106.756 16.3334 105.732 16.0774 104.836 15.6934C103.939 15.3094 103.299 14.6694 102.787 14.0294C102.274 13.3894 101.89 12.4934 101.634 11.5974C101.378 10.7014 101.25 9.67736 101.25 8.65336V1.22936C101.25 0.973363 101.506 0.717361 101.762 0.717361H103.811C104.067 0.717361 104.323 0.973363 104.323 1.22936V8.65336C104.323 9.29336 104.323 9.93336 104.451 10.5734C104.579 11.2134 104.836 11.7254 105.092 12.1094C105.348 12.6214 105.732 13.0054 106.244 13.2614C106.756 13.5174 107.269 13.6454 107.909 13.6454Z" fill="#555555"/>
<path d="M119.945 15.6933V1.10133C119.945 0.845327 120.201 0.589325 120.458 0.589325H126.86C127.629 0.589325 128.269 0.717324 128.781 0.973324C129.421 1.22932 129.934 1.61333 130.318 2.12533C130.702 2.63733 131.086 3.14933 131.342 3.78933C131.598 4.42933 131.726 5.06933 131.726 5.70933C131.726 6.73333 131.47 7.62932 130.958 8.39732C130.574 9.03732 130.062 9.54932 129.421 9.93332C129.165 10.0613 129.037 10.3173 129.293 10.5733L132.111 15.3093C132.239 15.5653 132.111 15.9493 131.726 15.9493H129.421C129.293 15.9493 129.165 15.8213 129.037 15.6933L125.964 11.2133C125.836 11.0853 125.708 10.9573 125.58 10.9573H123.403C123.147 10.9573 122.891 11.2133 122.891 11.4693V15.6933C122.891 15.9493 122.634 16.2053 122.378 16.2053H120.329C120.073 16.0773 119.945 15.9493 119.945 15.6933ZM122.891 7.88533C122.891 8.14133 123.147 8.39732 123.403 8.39732H126.732C126.988 8.39732 127.244 8.26933 127.501 8.14133C127.757 8.01333 127.885 7.88533 128.141 7.62933C128.269 7.37333 128.397 7.11733 128.525 6.86133C128.653 6.60533 128.653 6.22132 128.653 5.83732C128.653 5.45332 128.653 5.19732 128.525 4.81332C128.397 4.55732 128.269 4.30133 128.013 4.04533C127.757 3.78933 127.629 3.66132 127.373 3.53332C127.116 3.40532 126.86 3.40533 126.604 3.40533H123.403C123.147 3.40533 122.891 3.66132 122.891 3.91732V7.88533Z" fill="#555555"/>
<path d="M138.002 2.50938H136.849C136.593 2.50938 136.337 2.76538 136.337 3.02138V6.73337C136.337 6.98937 136.081 7.24537 135.825 7.24537H134.8C134.544 7.24537 134.288 6.98937 134.288 6.73337V3.02138C134.288 2.76538 134.032 2.50938 133.776 2.50938H132.624C132.367 2.50938 132.111 2.25337 132.111 1.99738V0.973377C132.111 0.717377 132.367 0.46138 132.624 0.46138H137.746C138.002 0.46138 138.258 0.717377 138.258 0.973377V1.99738C138.514 2.38137 138.258 2.50938 138.002 2.50938ZM145.173 0.717376H147.222C147.478 0.717376 147.734 0.973378 147.734 1.22938V6.86138C147.734 7.11738 147.478 7.37337 147.222 7.37337H146.197C145.941 7.37337 145.685 7.11738 145.685 6.86138V3.14938L144.405 6.09337C144.277 6.22137 144.149 6.34937 144.02 6.34937H143.124C142.996 6.34937 142.74 6.22137 142.74 6.09337L141.459 3.14938V6.73337C141.459 6.98937 141.203 7.24537 140.947 7.24537H139.923C139.667 7.24537 139.41 6.98937 139.41 6.73337V1.10138C139.41 0.84538 139.667 0.589378 139.923 0.589378H141.972C142.228 0.589378 142.356 0.717379 142.356 0.845379L143.508 3.91737L144.661 0.845379C144.789 0.845379 144.917 0.717376 145.173 0.717376Z" fill="#555555"/>
<path d="M155.733 15.8889V15.6667L156.178 15.5556C156.512 15.4445 156.623 15.3333 156.734 15.1111C156.845 14.8889 156.845 14.6667 156.845 14.4445V2.8889C156.845 2.55557 156.845 2.33335 156.734 2.22224C156.623 2.00001 156.4 1.8889 156.178 1.77779L155.733 1.55557V1.33334H161.069C163.292 1.33334 164.848 1.77779 165.849 2.55557C166.849 3.33335 167.294 4.44445 167.294 5.77779C167.294 6.66668 167.072 7.33335 166.738 8.11113C166.294 8.7778 165.627 9.33335 164.737 9.77779C163.848 10.2222 162.514 10.4445 160.958 10.4445H160.18V14.5556C160.18 15.1111 160.513 15.5556 161.069 15.6667L161.736 15.8889V16.1111H155.733V15.8889ZM160.18 9.8889H161.069C161.736 9.8889 162.403 9.77779 162.848 9.55557C163.292 9.33335 163.626 8.8889 163.848 8.33335C164.07 7.77779 164.182 6.88891 164.182 5.88891C164.182 4.77779 164.07 4.00001 163.848 3.44446C163.626 2.8889 163.292 2.44446 162.736 2.22224C162.292 2.00001 161.625 1.8889 160.958 1.8889H160.18V9.8889Z" fill="#8F0339"/>
<path d="M167.961 15.8889V15.6667L168.183 15.5556C168.739 15.3333 168.961 15 168.961 14.4445V2.66668C168.961 2.33334 168.85 2.11112 168.739 2.00001C168.628 1.8889 168.405 1.77779 168.072 1.66667L167.738 1.55556V1.33334L171.74 0.333344L171.962 0.555562L171.851 3.66668V11.2222C171.851 11.7778 171.851 12.3333 171.851 12.8889C171.851 13.4445 171.851 14 171.851 14.4445C171.851 14.7778 171.962 15 172.074 15.1111C172.185 15.3333 172.407 15.4445 172.629 15.5556L172.963 15.6667V15.8889H167.961Z" fill="#8F0339"/>
<path d="M177.298 16.2222C176.409 16.2222 175.742 16 175.186 15.4444C174.63 15 174.297 14.2222 174.297 13.3333C174.297 12.6666 174.63 12 175.408 11.4444C176.075 10.8889 177.187 10.4444 178.743 10.1111C178.966 10.1111 179.299 9.99997 179.521 9.99997C179.855 9.99997 180.077 9.88886 180.411 9.88886V8.11109C180.411 7.11108 180.299 6.44442 180.077 5.99997C179.855 5.55553 179.41 5.44442 178.966 5.44442C178.632 5.44442 178.299 5.55552 178.076 5.77774C177.854 5.99997 177.743 6.44442 177.632 6.99997V7.22219C177.632 7.88886 177.409 8.33331 177.187 8.66664C176.854 8.99997 176.52 9.11108 176.187 9.11108C175.853 9.11108 175.52 8.99997 175.186 8.77775C174.964 8.55553 174.853 8.22219 174.853 7.77775C174.853 7.22219 175.075 6.66664 175.52 6.22219C175.964 5.77775 176.52 5.55553 177.187 5.33331C177.854 5.11108 178.632 4.99997 179.41 4.99997C180.744 4.99997 181.745 5.3333 182.412 5.99997C183.078 6.66664 183.523 7.66663 183.523 9.11108V14C183.523 14.6666 183.857 15 184.412 15H184.857L185.079 15.2222C184.746 15.5555 184.524 15.8889 184.19 16C183.857 16.2222 183.412 16.3333 182.745 16.3333C182.078 16.3333 181.633 16.2222 181.189 15.8889C180.855 15.5555 180.522 15.2222 180.411 14.6666C179.966 15.1111 179.521 15.5555 179.077 15.8889C178.632 16.1111 177.965 16.2222 177.298 16.2222ZM178.632 14.8889C178.966 14.8889 179.188 14.7777 179.41 14.6666C179.633 14.5555 179.966 14.3333 180.299 14V10.3333C180.188 10.3333 179.966 10.4444 179.855 10.4444C179.744 10.4444 179.521 10.5555 179.299 10.5555C178.632 10.7777 178.076 11 177.632 11.4444C177.187 11.8889 177.076 12.4444 177.076 13.1111C177.076 13.6666 177.187 14.2222 177.521 14.4444C177.854 14.7778 178.187 14.8889 178.632 14.8889Z" fill="#8F0339"/>
<path d="M185.413 15.8889V15.6667L185.747 15.5556C186.302 15.4444 186.525 15 186.525 14.4444V7.55555C186.525 7.22222 186.525 6.99999 186.414 6.88888C186.302 6.77777 186.08 6.66666 185.858 6.55555L185.524 6.44444V6.22222L189.304 4.88889L189.526 5.1111L189.748 6.44444C190.304 6 190.86 5.66667 191.527 5.33333C192.194 5 192.861 4.88889 193.417 4.88889C194.417 4.88889 195.084 5.1111 195.64 5.66666C196.196 6.22222 196.418 7 196.418 8.11111V14.4444C196.418 15 196.751 15.3333 197.307 15.5556L197.529 15.6667V15.8889H192.305V15.6667L192.638 15.5556C193.194 15.4444 193.417 15 193.417 14.4444V7.44444C193.417 6.55555 192.972 6 191.972 6C191.305 6 190.638 6.33333 189.859 7V14.5555C189.859 15.1111 190.082 15.4444 190.638 15.6667L190.86 15.7778V16H185.413V15.8889Z" fill="#8F0339"/>
</svg>
