<svg width="22" height="18" viewBox="0 0 22 18" fill="none" xmlns="http://www.w3.org/2000/svg">
<path d="M15.6417 8.73673C15.6417 9.53718 15.3981 10.2891 14.9865 10.936L11.0977 17L7.22565 10.944L7.14166 10.8147C6.76369 10.2002 6.55371 9.48867 6.55371 8.72865C6.55371 6.39198 8.58632 4.5 11.0977 4.5C13.6091 4.50809 15.6417 6.40006 15.6417 8.73673Z" stroke="#333333" stroke-linejoin="round"/>
<path d="M12.6348 9.00006C12.6348 9.83339 11.9532 10.5001 11.1201 10.5001C10.2871 10.5001 9.60547 9.82506 9.60547 9.00006C9.60547 8.17506 10.2871 7.50006 11.1201 7.50006C11.9532 7.50006 12.6348 8.16673 12.6348 9.00006Z" stroke="#333333"/>
<path d="M4.87126 7.76165L4.04583 9.00002L1.45399 5.12538L1.39621 5.04181C1.14032 4.65435 1 4.19851 1 3.71228C1 2.2156 2.36196 1.00003 4.04583 1.00003C5.58938 1.00003 6.86879 2.02567 7.05864 3.3628" stroke="#333333" stroke-linecap="round" stroke-linejoin="round"/>
<path d="M4.94631 3.90811C4.94631 4.46095 4.49294 4.90811 3.93241 4.90811C3.37188 4.90811 2.92676 4.45282 2.92676 3.90811C2.92676 3.3634 3.38013 2.90811 3.94065 2.90811C4.50118 2.90811 4.94631 3.35527 4.94631 3.90811Z" stroke="#333333"/>
<path d="M14.9414 3.36277C15.1313 2.03324 16.4107 1 17.9542 1C19.6381 1 21 2.21557 21 3.71225C21 4.19848 20.8597 4.65431 20.6038 5.04938L20.5543 5.12535L17.9625 8.99999L17.137 7.76162" stroke="#333333" stroke-linecap="round" stroke-linejoin="round"/>
<path d="M17.7489 2.90808C18.2882 2.90808 18.7244 3.35523 18.7244 3.90808C18.7244 4.46092 18.2882 4.90808 17.7489 4.90808C17.2096 4.90808 16.7734 4.46092 16.7734 3.90808C16.7734 3.35523 17.2176 2.90808 17.7489 2.90808Z" stroke="#333333"/>
</svg>
