<svg width="12" height="12" viewBox="0 0 12 12" fill="none" xmlns="http://www.w3.org/2000/svg">
<path d="M0.793744 1.47099C0.615064 1.29231 0.628506 0.98917 0.823768 0.793908C1.01903 0.598645 1.32217 0.585203 1.50085 0.763884L11.2067 10.4698C11.3854 10.6484 11.372 10.9516 11.1767 11.1468C10.9814 11.3421 10.6783 11.3556 10.4996 11.1769L0.793744 1.47099Z" fill="#333333"/>
<path d="M10.4997 0.823529C10.6784 0.644849 10.9815 0.658291 11.1768 0.853553C11.3721 1.04882 11.3855 1.35196 11.2068 1.53064L1.50094 11.2365C1.32226 11.4152 1.01912 11.4018 0.823855 11.2065C0.628593 11.0112 0.61515 10.7081 0.793831 10.5294L10.4997 0.823529Z" fill="#333333"/>
</svg>
