<svg width="16" height="20" viewBox="0 0 16 20" fill="none" xmlns="http://www.w3.org/2000/svg">
<path fill-rule="evenodd" clip-rule="evenodd" d="M13.3996 6.22589C13.3996 7.21804 13.1139 8.1446 12.618 8.93651L8.00032 16.4286L3.39462 8.95535L3.29939 8.79976C2.85356 8.04064 2.59961 7.16222 2.59961 6.22589C2.59961 3.33804 5.01709 1 8.00032 1C10.9828 1 13.3996 3.33804 13.3996 6.22589Z" stroke="#333333" stroke-linejoin="round"/>
<path fill-rule="evenodd" clip-rule="evenodd" d="M9.79922 6.39998C9.79922 7.39378 8.99357 8.19998 7.99957 8.19998C7.00557 8.19998 6.19922 7.39378 6.19922 6.39998C6.19922 5.40617 7.00557 4.59998 7.99957 4.59998C8.99357 4.59998 9.79922 5.40617 9.79922 6.39998Z" stroke="#333333"/>
<path d="M11.9026 13.7416C13.8869 14.2503 15.1998 15.1359 15.1998 16.143C15.1998 17.7209 11.9762 19 8.00009 19C4.02344 19 0.799805 17.7209 0.799805 16.143C0.799805 15.0343 2.38978 14.074 4.7138 13.6" stroke="#333333" stroke-linecap="round" stroke-linejoin="round" stroke-dasharray="2 3"/>
</svg>
