<svg width="13" height="16" viewBox="0 0 13 16" fill="none" >
<path d="M12.3574 4.93333V11.6C12.3574 13.4667 10.8446 15 9.00293 15H6.70083C5.77999 15 4.7276 14 4.2014 13.3333L1.3731 9.93333C0.912682 9.46667 0.846908 8.73333 1.24155 8.26667C1.50465 8 1.83352 7.86667 2.1624 7.86667C2.49127 7.86667 2.75436 8 3.01746 8.2L4.66182 9.86667C4.66182 9.86667 4.66182 9.73333 4.66182 9.66667V3.26667C4.66182 2.73333 5.12224 2.26667 5.64844 2.26667C6.17463 2.26667 6.63505 2.73333 6.63505 3.26667V7.46667V2C6.63505 1.46667 7.09547 1 7.62167 1C8.14786 1 8.60828 1.46667 8.60828 2V7.33333V2.93333C8.60828 2.4 9.0687 1.93333 9.5949 1.93333C10.1211 1.93333 10.5157 2.46667 10.5157 3V7.73333V5C10.5157 4.46667 10.9104 4 11.4366 3.93333C11.9628 3.93333 12.3574 4.4 12.3574 4.93333Z" stroke-miterlimit="10" stroke-linejoin="round"/>
</svg>
