<svg width="30" height="30" viewBox="0 0 30 30" fill="none" xmlns="http://www.w3.org/2000/svg">
<circle cx="15" cy="15" r="14.5" stroke="#333333"/>
<path d="M13.6465 18.4316V17.9746C13.6465 17.5059 13.6904 17.1045 13.7783 16.7705C13.8662 16.4307 14.0186 16.1143 14.2354 15.8213C14.458 15.5283 14.7656 15.2178 15.1582 14.8896C15.6152 14.5088 15.9756 14.1865 16.2393 13.9229C16.5088 13.6533 16.7021 13.3838 16.8193 13.1143C16.9365 12.8447 16.9951 12.5195 16.9951 12.1387C16.9951 11.5293 16.7988 11.0635 16.4062 10.7412C16.0137 10.4131 15.46 10.249 14.7451 10.249C14.165 10.249 13.6494 10.3223 13.1982 10.4688C12.7471 10.6152 12.3135 10.791 11.8975 10.9961L11.3877 9.81836C11.8682 9.56641 12.3896 9.36133 12.9521 9.20312C13.5146 9.04492 14.1416 8.96582 14.833 8.96582C15.9639 8.96582 16.8398 9.24707 17.4609 9.80957C18.082 10.3662 18.3926 11.1338 18.3926 12.1123C18.3926 12.6572 18.3047 13.123 18.1289 13.5098C17.9531 13.8906 17.7041 14.2422 17.3818 14.5645C17.0596 14.8809 16.6787 15.2178 16.2393 15.5752C15.8525 15.9033 15.5566 16.1934 15.3516 16.4453C15.1465 16.6914 15.0059 16.9463 14.9297 17.21C14.8535 17.4678 14.8154 17.7783 14.8154 18.1416V18.4316H13.6465ZM13.2598 21.0859C13.2598 20.6758 13.3564 20.3857 13.5498 20.2158C13.7432 20.04 13.9922 19.9521 14.2969 19.9521C14.584 19.9521 14.8271 20.04 15.0264 20.2158C15.2314 20.3857 15.334 20.6758 15.334 21.0859C15.334 21.4902 15.2314 21.7861 15.0264 21.9736C14.8271 22.1553 14.584 22.2461 14.2969 22.2461C13.9922 22.2461 13.7432 22.1553 13.5498 21.9736C13.3564 21.7861 13.2598 21.4902 13.2598 21.0859Z" fill="#333333"/>
</svg>
