<svg width="16" height="20" viewBox="0 0 16 20" fill="none" xmlns="http://www.w3.org/2000/svg">
<path fill-rule="evenodd" clip-rule="evenodd" d="M12.044 9.16513V12.1714H11.5312V9.16513H10.9258V8.93196L11.5312 8.74543V8.55579C11.5312 7.71847 11.8947 7.2998 12.6216 7.2998C12.8007 7.2998 13.0108 7.33607 13.2517 7.40862L13.1189 7.82209C12.9212 7.75784 12.7523 7.72572 12.6123 7.72572C12.4187 7.72572 12.2756 7.79049 12.183 7.92002C12.0903 8.04956 12.044 8.25734 12.044 8.54335V8.76408H12.9058V9.16513H12.044ZM9.77792 11.7144C9.54111 12.0605 9.18692 12.2336 8.71535 12.2336C8.2726 12.2336 7.92819 12.0812 7.68211 11.7766C7.43603 11.4719 7.31299 11.0387 7.31299 10.4771C7.31299 9.91538 7.43654 9.4791 7.68366 9.16822C7.93077 8.85733 8.27466 8.70189 8.71535 8.70189C9.17456 8.70189 9.52669 8.86977 9.77175 9.20552H9.8119L9.79028 8.95992L9.77792 8.72054V7.33398H10.2907V12.1714H9.87368L9.80572 11.7144H9.77792ZM4.13776 13.701V12.2989C4.13776 12.1206 4.1254 11.932 4.10069 11.7331H4.13776C4.26131 11.903 4.41421 12.0289 4.59646 12.1108C4.7787 12.1927 4.97999 12.2336 5.20033 12.2336C5.64102 12.2336 5.98543 12.0787 6.23357 11.7688C6.48171 11.459 6.60578 11.0243 6.60578 10.4647C6.60578 9.90713 6.48377 9.47396 6.23975 9.16515C5.99572 8.85633 5.64925 8.70193 5.20033 8.70193C4.97382 8.70193 4.77304 8.74338 4.598 8.82628C4.42296 8.90918 4.26955 9.0439 4.13776 9.23043H4.11304L4.042 8.7641H3.625V13.701H4.13776ZM5.1385 11.8015C4.78842 11.8015 4.5341 11.6983 4.37554 11.4921C4.21698 11.2859 4.1377 10.9434 4.1377 10.4646V10.3496C4.14181 9.92888 4.2211 9.62213 4.37554 9.42938C4.52998 9.23663 4.78018 9.14026 5.12614 9.14026C5.42679 9.14026 5.66 9.25373 5.82577 9.48068C5.99155 9.70763 6.07443 10.0335 6.07443 10.4584C6.07443 10.8771 5.99155 11.2056 5.82577 11.4439C5.66 11.6823 5.43091 11.8015 5.1385 11.8015ZM8.78213 11.8015C8.4753 11.8015 8.2426 11.6906 8.08404 11.4689C7.92547 11.2471 7.84619 10.9186 7.84619 10.4833C7.84619 10.0543 7.92599 9.72219 8.08558 9.48695C8.24517 9.25171 8.4753 9.13409 8.77595 9.13409C9.12602 9.13409 9.38086 9.23721 9.54045 9.44343C9.70004 9.64965 9.77984 9.99421 9.77984 10.4771V10.5859C9.77984 11.0129 9.70107 11.3222 9.54354 11.5139C9.386 11.7056 9.1322 11.8015 8.78213 11.8015Z" fill="#333333"/>
<path fill-rule="evenodd" clip-rule="evenodd" d="M15 1V19H1V5.72036L5.8654 1H15Z" stroke="#333333" stroke-linecap="square" stroke-linejoin="round"/>
<path d="M1 5.4502C0.723858 5.4502 0.5 5.67405 0.5 5.9502C0.5 6.22634 0.723858 6.4502 1 6.4502V5.4502ZM5.8125 5.9502V6.4502C6.08864 6.4502 6.3125 6.22634 6.3125 5.9502H5.8125ZM6.3125 1.4502C6.3125 1.17405 6.08864 0.950195 5.8125 0.950195C5.53636 0.950195 5.3125 1.17405 5.3125 1.4502H6.3125ZM1 6.4502H5.8125V5.4502H1V6.4502ZM6.3125 5.9502V1.4502H5.3125V5.9502H6.3125Z" fill="#333333"/>
</svg>
