<svg width="20" height="8" viewBox="0 0 20 8" fill="none" xmlns="http://www.w3.org/2000/svg">
<path fill-rule="evenodd" clip-rule="evenodd" d="M0 3.99989C0 1.82973 1.88179 0.0546875 4.22409 0.0546875H8.28217C8.54625 0.0546875 8.76034 0.250946 8.76034 0.493044C8.76034 0.735141 8.54625 0.9314 8.28217 0.9314H4.22409C2.42876 0.9314 0.95633 2.2965 0.95633 3.99989C0.95633 5.70329 2.42876 7.06839 4.22409 7.06839H8.28217C8.54625 7.06839 8.76034 7.26465 8.76034 7.50674C8.76034 7.74884 8.54625 7.9451 8.28217 7.9451H4.22409C1.88178 7.9451 0 6.17006 0 3.99989Z" fill="#333333"/>
<path fill-rule="evenodd" clip-rule="evenodd" d="M11.459 0.493151C11.459 0.220791 11.676 0 11.9437 0H15.8806C18.1308 0 19.9993 1.76662 19.9993 4C19.9993 6.23338 18.1308 8 15.8806 8H11.9437C11.676 8 11.459 7.77921 11.459 7.50685C11.459 7.23449 11.676 7.0137 11.9437 7.0137H15.8806C17.6444 7.0137 19.0299 5.64018 19.0299 4C19.0299 2.35982 17.6444 0.986301 15.8806 0.986301H11.9437C11.676 0.986301 11.459 0.76551 11.459 0.493151Z" fill="#333333"/>
<line x1="6.39844" y1="4.15723" x2="13.9964" y2="4.15723" stroke="#333333" stroke-linecap="round"/>
</svg>
