<svg width="16" height="20" viewBox="0 0 16 20" fill="none" xmlns="http://www.w3.org/2000/svg">
<path d="M15 9.66666L1 9.66666L1 18.6667H15L15 9.66666Z" stroke="#333333" stroke-miterlimit="10" stroke-linejoin="round"/>
<path d="M8.96481 14.8557C8.8159 14.9465 8.72504 15.1083 8.72504 15.2827V15.9667C8.72504 16.3992 8.39092 16.7267 8.00004 16.7267C7.6202 16.7267 7.28379 16.4016 7.28379 15.9667V15.2827C7.28379 15.1066 7.19121 14.9435 7.04003 14.8533C6.48276 14.5207 6.10254 13.892 6.10254 13.1587C6.10254 12.0624 6.96812 11.1927 8.00004 11.1927C9.03954 11.1927 9.89754 12.0612 9.89754 13.1587C9.89754 13.8925 9.52528 14.5141 8.96481 14.8557Z" stroke="#333333" stroke-linejoin="round"/>
<path d="M2.61914 7.86666L2.61914 6.20166C2.61914 3.15066 5.03414 0.666656 8.00039 0.666656C10.9666 0.666656 13.3816 3.15066 13.3816 6.20166V7.86666" stroke="#333333" stroke-miterlimit="10" stroke-linecap="round"/>
<path d="M11.5087 7.86668V6.20168C11.5087 4.21268 9.93371 2.59268 7.99996 2.59268C6.06621 2.59268 4.49121 4.21268 4.49121 6.20168V7.86668" stroke="#333333" stroke-miterlimit="10" stroke-linecap="round"/>
</svg>
