<svg width="42" height="42" viewBox="0 0 42 42" fill="none" xmlns="http://www.w3.org/2000/svg">
<rect x="0.970703" y="1" width="19.7018" height="5.82462" rx="1.5" stroke="#333333"/>
<path d="M3.5032 8.27073C4.3466 8.14626 5.22068 8.14626 6.06408 8.27073C6.32477 8.30468 6.50879 8.48572 6.50879 8.67809L6.34011 10.1604C6.2941 10.5791 5.81873 10.9072 5.23601 10.9072L4.33127 10.9072C3.76389 10.9072 3.27318 10.5791 3.22717 10.1604L3.05849 8.67809C3.05849 8.48572 3.24251 8.31599 3.5032 8.27073Z" stroke="#333333" stroke-miterlimit="10" stroke-linecap="round" stroke-linejoin="round"/>
<path d="M9.54128 8.27073C10.3847 8.14626 11.2588 8.14626 12.1022 8.27073C12.3629 8.30468 12.5469 8.48572 12.5469 8.67809L12.3782 10.1604C12.3322 10.5791 11.8568 10.9072 11.2741 10.9072L10.3694 10.9072C9.80197 10.9072 9.31126 10.5791 9.26526 10.1604L9.09658 8.67809C9.09658 8.48572 9.28059 8.31599 9.54128 8.27073Z" stroke="#333333" stroke-miterlimit="10" stroke-linecap="round" stroke-linejoin="round"/>
<path d="M15.5794 8.27073C16.4228 8.14626 17.2969 8.14626 18.1403 8.27073C18.4009 8.30468 18.585 8.48572 18.585 8.67809L18.4163 10.1604C18.3703 10.5791 17.8949 10.9072 17.3122 10.9072L16.4074 10.9072C15.8401 10.9072 15.3493 10.5791 15.3033 10.1604L15.1347 8.67809C15.1347 8.48572 15.3187 8.31599 15.5794 8.27073Z" stroke="#333333" stroke-miterlimit="10" stroke-linecap="round" stroke-linejoin="round"/>
<rect x="0.970703" y="16.3555" width="19.7018" height="5.82462" rx="1.5" stroke="#333333"/>
<path d="M3.5032 23.6262C4.3466 23.5017 5.22068 23.5017 6.06408 23.6262C6.32477 23.6601 6.50879 23.8412 6.50879 24.0336L6.34011 25.5159C6.2941 25.9345 5.81873 26.2627 5.23601 26.2627H4.33127C3.76389 26.2627 3.27318 25.9345 3.22717 25.5159L3.05849 24.0336C3.05849 23.8412 3.24251 23.6715 3.5032 23.6262Z" stroke="#333333" stroke-miterlimit="10" stroke-linecap="round" stroke-linejoin="round"/>
<path d="M9.54128 23.6262C10.3847 23.5017 11.2588 23.5017 12.1022 23.6262C12.3629 23.6601 12.5469 23.8412 12.5469 24.0336L12.3782 25.5159C12.3322 25.9345 11.8568 26.2627 11.2741 26.2627H10.3694C9.80197 26.2627 9.31126 25.9345 9.26526 25.5159L9.09658 24.0336C9.09658 23.8412 9.28059 23.6715 9.54128 23.6262Z" stroke="#333333" stroke-miterlimit="10" stroke-linecap="round" stroke-linejoin="round"/>
<path d="M15.5794 23.6262C16.4228 23.5017 17.2969 23.5017 18.1403 23.6262C18.4009 23.6601 18.585 23.8412 18.585 24.0336L18.4163 25.5159C18.3703 25.9345 17.8949 26.2627 17.3122 26.2627H16.4074C15.8401 26.2627 15.3493 25.9345 15.3033 25.5159L15.1347 24.0336C15.1347 23.8412 15.3187 23.6715 15.5794 23.6262Z" stroke="#333333" stroke-miterlimit="10" stroke-linecap="round" stroke-linejoin="round"/>
<rect x="0.970703" y="31.5928" width="19.7018" height="5.82462" rx="1.5" stroke="#333333"/>
<path d="M3.5032 38.8635C4.3466 38.739 5.22068 38.739 6.06408 38.8635C6.32477 38.8974 6.50879 39.0785 6.50879 39.2709L6.34011 40.7532C6.2941 41.1719 5.81873 41.5 5.23601 41.5H4.33127C3.76389 41.5 3.27318 41.1719 3.22717 40.7532L3.05849 39.2709C3.05849 39.0785 3.24251 38.9088 3.5032 38.8635Z" stroke="#333333" stroke-miterlimit="10" stroke-linecap="round" stroke-linejoin="round"/>
<path d="M9.54128 38.8635C10.3847 38.739 11.2588 38.739 12.1022 38.8635C12.3629 38.8974 12.5469 39.0785 12.5469 39.2709L12.3782 40.7532C12.3322 41.1719 11.8568 41.5 11.2741 41.5H10.3694C9.80197 41.5 9.31126 41.1719 9.26526 40.7532L9.09658 39.2709C9.09658 39.0785 9.28059 38.9088 9.54128 38.8635Z" stroke="#333333" stroke-miterlimit="10" stroke-linecap="round" stroke-linejoin="round"/>
<path d="M15.5794 38.8635C16.4228 38.739 17.2969 38.739 18.1403 38.8635C18.4009 38.8974 18.585 39.0785 18.585 39.2709L18.4163 40.7532C18.3703 41.1719 17.8949 41.5 17.3122 41.5H16.4074C15.8401 41.5 15.3493 41.1719 15.3033 40.7532L15.1347 39.2709C15.1347 39.0785 15.3187 38.9088 15.5794 38.8635Z" stroke="#333333" stroke-miterlimit="10" stroke-linecap="round" stroke-linejoin="round"/>
<rect x="21.3276" y="1" width="19.7018" height="5.82462" rx="1.5" stroke="#333333"/>
<path d="M23.8601 8.27073C24.7035 8.14626 25.5776 8.14626 26.421 8.27073C26.6817 8.30468 26.8657 8.48572 26.8657 8.67809L26.697 10.1604C26.651 10.5791 26.1757 10.9072 25.5929 10.9072L24.6882 10.9072C24.1208 10.9072 23.6301 10.5791 23.5841 10.1604L23.4154 8.67809C23.4154 8.48572 23.5994 8.31599 23.8601 8.27073Z" stroke="#333333" stroke-miterlimit="10" stroke-linecap="round" stroke-linejoin="round"/>
<path d="M29.8982 8.27073C30.7416 8.14626 31.6157 8.14626 32.4591 8.27073C32.7198 8.30468 32.9038 8.48572 32.9038 8.67809L32.7351 10.1604C32.6891 10.5791 32.2137 10.9072 31.631 10.9072L30.7263 10.9072C30.1589 10.9072 29.6682 10.5791 29.6222 10.1604L29.4535 8.67809C29.4535 8.48572 29.6375 8.31599 29.8982 8.27073Z" stroke="#333333" stroke-miterlimit="10" stroke-linecap="round" stroke-linejoin="round"/>
<path d="M35.9363 8.27073C36.7797 8.14626 37.6538 8.14626 38.4972 8.27073C38.7579 8.30468 38.9419 8.48572 38.9419 8.67809L38.7732 10.1604C38.7272 10.5791 38.2518 10.9072 37.6691 10.9072L36.7644 10.9072C36.197 10.9072 35.7063 10.5791 35.6603 10.1604L35.4916 8.67809C35.4916 8.48572 35.6756 8.31599 35.9363 8.27073Z" stroke="#333333" stroke-miterlimit="10" stroke-linecap="round" stroke-linejoin="round"/>
<rect x="21.3276" y="16.3555" width="19.7018" height="5.82462" rx="1.5" stroke="#333333"/>
<path d="M23.8601 23.6262C24.7035 23.5017 25.5776 23.5017 26.421 23.6262C26.6817 23.6601 26.8657 23.8412 26.8657 24.0336L26.697 25.5159C26.651 25.9345 26.1757 26.2627 25.5929 26.2627H24.6882C24.1208 26.2627 23.6301 25.9345 23.5841 25.5159L23.4154 24.0336C23.4154 23.8412 23.5994 23.6715 23.8601 23.6262Z" stroke="#333333" stroke-miterlimit="10" stroke-linecap="round" stroke-linejoin="round"/>
<path d="M29.8982 23.6262C30.7416 23.5017 31.6157 23.5017 32.4591 23.6262C32.7198 23.6601 32.9038 23.8412 32.9038 24.0336L32.7351 25.5159C32.6891 25.9345 32.2137 26.2627 31.631 26.2627H30.7263C30.1589 26.2627 29.6682 25.9345 29.6222 25.5159L29.4535 24.0336C29.4535 23.8412 29.6375 23.6715 29.8982 23.6262Z" stroke="#333333" stroke-miterlimit="10" stroke-linecap="round" stroke-linejoin="round"/>
<path d="M35.9363 23.6262C36.7797 23.5017 37.6538 23.5017 38.4972 23.6262C38.7579 23.6601 38.9419 23.8412 38.9419 24.0336L38.7732 25.5159C38.7272 25.9345 38.2518 26.2627 37.6691 26.2627H36.7644C36.197 26.2627 35.7063 25.9345 35.6603 25.5159L35.4916 24.0336C35.4916 23.8412 35.6756 23.6715 35.9363 23.6262Z" stroke="#333333" stroke-miterlimit="10" stroke-linecap="round" stroke-linejoin="round"/>
<rect x="21.3276" y="31.5928" width="19.7018" height="5.82462" rx="1.5" stroke="#333333"/>
<path d="M23.8601 38.8635C24.7035 38.739 25.5776 38.739 26.421 38.8635C26.6817 38.8974 26.8657 39.0785 26.8657 39.2709L26.697 40.7532C26.651 41.1719 26.1757 41.5 25.5929 41.5H24.6882C24.1208 41.5 23.6301 41.1719 23.5841 40.7532L23.4154 39.2709C23.4154 39.0785 23.5994 38.9088 23.8601 38.8635Z" stroke="#333333" stroke-miterlimit="10" stroke-linecap="round" stroke-linejoin="round"/>
<path d="M29.8982 38.8635C30.7416 38.739 31.6157 38.739 32.4591 38.8635C32.7198 38.8974 32.9038 39.0785 32.9038 39.2709L32.7351 40.7532C32.6891 41.1719 32.2137 41.5 31.631 41.5H30.7263C30.1589 41.5 29.6682 41.1719 29.6222 40.7532L29.4535 39.2709C29.4535 39.0785 29.6375 38.9088 29.8982 38.8635Z" stroke="#333333" stroke-miterlimit="10" stroke-linecap="round" stroke-linejoin="round"/>
<path d="M35.9363 38.8635C36.7797 38.739 37.6538 38.739 38.4972 38.8635C38.7579 38.8974 38.9419 39.0785 38.9419 39.2709L38.7732 40.7532C38.7272 41.1719 38.2518 41.5 37.6691 41.5H36.7644C36.197 41.5 35.7063 41.1719 35.6603 40.7532L35.4916 39.2709C35.4916 39.0785 35.6756 38.9088 35.9363 38.8635Z" stroke="#333333" stroke-miterlimit="10" stroke-linecap="round" stroke-linejoin="round"/>
</svg>
