<svg width="46" height="46" viewBox="0 0 46 46" fill="none" xmlns="http://www.w3.org/2000/svg">
<circle cx="11.0001" cy="11.0001" r="5.00006" stroke="#333333"/>
<path d="M12.1164 4.01763C11.3809 4.16396 10.6185 4.16396 9.88296 4.01763C9.65561 3.97772 9.49512 3.76486 9.49512 3.53871L9.64223 1.79598C9.68235 1.30376 10.0969 0.917969 10.6052 0.917969H11.3942C11.8891 0.917969 12.317 1.30376 12.3572 1.79598L12.5043 3.53871C12.5043 3.76486 12.3438 3.96441 12.1164 4.01763Z" stroke="#333333" stroke-miterlimit="10" stroke-linecap="round" stroke-linejoin="round"/>
<path d="M9.88309 17.9824C10.6187 17.836 11.381 17.836 12.1165 17.9824C12.3439 18.0223 12.5044 18.2351 12.5044 18.4613L12.3573 20.204C12.3172 20.6962 11.9026 21.082 11.3944 21.082L10.6053 21.082C10.1104 21.082 9.68248 20.6962 9.64236 20.204L9.49524 18.4613C9.49524 18.2351 9.65573 18.0356 9.88309 17.9824Z" stroke="#333333" stroke-miterlimit="10" stroke-linecap="round" stroke-linejoin="round"/>
<path d="M17.9824 12.1164C17.836 11.3809 17.836 10.6185 17.9824 9.88296C18.0223 9.65561 18.2351 9.49512 18.4613 9.49512L20.204 9.64223C20.6962 9.68235 21.082 10.0969 21.082 10.6052L21.082 11.3942C21.082 11.8891 20.6962 12.317 20.204 12.3572L18.4613 12.5043C18.2351 12.5043 18.0356 12.3438 17.9824 12.1164Z" stroke="#333333" stroke-miterlimit="10" stroke-linecap="round" stroke-linejoin="round"/>
<path d="M4.01763 9.88358C4.16396 10.6191 4.16396 11.3815 4.01763 12.117C3.97772 12.3444 3.76486 12.5049 3.53871 12.5049L1.79598 12.3578C1.30376 12.3176 0.917969 11.9031 0.917969 11.3948L0.917969 10.6058C0.917969 10.1109 1.30376 9.68297 1.79598 9.64284L3.53871 9.49573C3.76486 9.49573 3.96441 9.65622 4.01763 9.88358Z" stroke="#333333" stroke-miterlimit="10" stroke-linecap="round" stroke-linejoin="round"/>
<path d="M14.9994 16.5952C15.4231 15.9514 15.975 15.3965 16.6165 14.9695C16.8109 14.8335 17.0855 14.8743 17.2539 15.0418L18.4447 16.4393C18.7821 16.833 18.7691 17.4205 18.4011 17.7904L17.8298 18.3648C17.4715 18.725 16.8745 18.7508 16.479 18.4155L15.0751 17.2321C14.9068 17.0647 14.8744 16.8001 14.9994 16.5952Z" stroke="#333333" stroke-miterlimit="10" stroke-linecap="round" stroke-linejoin="round"/>
<path d="M7.00105 5.4048C6.57741 6.04857 6.02547 6.60346 5.38396 7.03052C5.18963 7.16645 4.91498 7.12566 4.74662 6.95819L3.55579 5.56065C3.21842 5.16696 3.2314 4.57951 3.59936 4.20959L4.17067 3.63523C4.52894 3.27504 5.126 3.2492 5.52148 3.58448L6.92534 4.76786C7.0937 4.93532 7.12605 5.1999 7.00105 5.4048Z" stroke="#333333" stroke-miterlimit="10" stroke-linecap="round" stroke-linejoin="round"/>
<path d="M16.6062 7.01587C15.9636 6.59052 15.4102 6.03711 14.9848 5.39446C14.8494 5.19978 14.8909 4.92524 15.0588 4.75732L16.4595 3.57022C16.8541 3.23389 17.4415 3.24843 17.8105 3.61737L18.3833 4.19021C18.7426 4.54944 18.7668 5.14657 18.4305 5.54115L17.2434 6.94186C17.0755 7.10977 16.8108 7.14142 16.6062 7.01587Z" stroke="#333333" stroke-miterlimit="10" stroke-linecap="round" stroke-linejoin="round"/>
<path d="M5.39377 14.9841C6.03641 15.4095 6.58983 15.9629 7.01518 16.6055C7.1506 16.8002 7.10907 17.0748 6.94116 17.2427L5.54045 18.4298C5.14587 18.7661 4.55845 18.7516 4.18951 18.3826L3.61668 17.8098C3.25744 17.4506 3.23319 16.8534 3.56952 16.4588L4.75663 15.0581C4.92454 14.8902 5.18921 14.8586 5.39377 14.9841Z" stroke="#333333" stroke-miterlimit="10" stroke-linecap="round" stroke-linejoin="round"/>
<circle cx="11.0001" cy="35.0001" r="5.00006" stroke="#333333"/>
<path d="M9.2453 28.149C8.62873 28.576 7.92938 28.8794 7.19634 29.0379C6.97187 29.0918 6.73993 28.9604 6.64993 28.7529L6.09133 27.0956C5.93224 26.628 6.15905 26.1091 6.62528 25.9069L7.34917 25.5928C7.80313 25.3959 8.34928 25.5795 8.58198 26.0151L9.41051 27.5553C9.50052 27.7628 9.4327 28.0097 9.2453 28.149Z" stroke="#333333" stroke-miterlimit="10" stroke-linecap="round" stroke-linejoin="round"/>
<path d="M12.7542 41.85C13.3708 41.423 14.0701 41.1196 14.8032 40.9611C15.0276 40.9073 15.2596 41.0387 15.3496 41.2461L15.9082 42.9035C16.0673 43.371 15.8405 43.8899 15.3742 44.0922L14.6503 44.4062C14.1964 44.6031 13.6502 44.4195 13.4175 43.9839L12.589 42.4437C12.499 42.2362 12.5668 41.9893 12.7542 41.85Z" stroke="#333333" stroke-miterlimit="10" stroke-linecap="round" stroke-linejoin="round"/>
<path d="M17.85 33.2458C17.423 32.6292 17.1196 31.9299 16.9611 31.1968C16.9073 30.9724 17.0387 30.7404 17.2461 30.6504L18.9035 30.0918C19.371 29.9327 19.8899 30.1595 20.0922 30.6258L20.4062 31.3497C20.6031 31.8036 20.4195 32.3498 19.9839 32.5825L18.4437 33.411C18.2362 33.501 17.9893 33.4332 17.85 33.2458Z" stroke="#333333" stroke-miterlimit="10" stroke-linecap="round" stroke-linejoin="round"/>
<path d="M4.14951 36.7532C4.5765 37.3698 4.87989 38.0692 5.03838 38.8022C5.09225 39.0267 4.96085 39.2586 4.75338 39.3486L3.09606 39.9072C2.62853 40.0663 2.10961 39.8395 1.90735 39.3733L1.59332 38.6494C1.39638 38.1954 1.57999 37.6493 2.01558 37.4166L3.5558 36.588C3.76328 36.498 4.01021 36.5658 4.14951 36.7532Z" stroke="#333333" stroke-miterlimit="10" stroke-linecap="round" stroke-linejoin="round"/>
<path d="M16.8956 38.5411C17.028 37.7819 17.3136 37.0532 17.7321 36.4061C17.8563 36.204 18.1245 36.1322 18.3456 36.2188L19.9942 37.027C20.4604 37.2539 20.6823 37.798 20.492 38.2838L20.1964 39.038C20.0111 39.5111 19.4736 39.7724 18.9774 39.6222L17.2185 39.0953C16.9974 39.0086 16.8625 38.7788 16.8956 38.5411Z" stroke="#333333" stroke-miterlimit="10" stroke-linecap="round" stroke-linejoin="round"/>
<path d="M5.1044 31.4589C4.97196 32.2181 4.68645 32.9468 4.26789 33.5939C4.14372 33.796 3.87551 33.8678 3.65442 33.7812L2.00576 32.973C1.53958 32.7461 1.31769 32.202 1.50804 31.7162L1.80357 30.962C1.98891 30.4889 2.52636 30.2276 3.0226 30.3778L4.78145 30.9047C5.00255 30.9914 5.13753 31.2212 5.1044 31.4589Z" stroke="#333333" stroke-miterlimit="10" stroke-linecap="round" stroke-linejoin="round"/>
<path d="M14.5573 29.1133C13.7984 28.9788 13.0705 28.6914 12.4245 28.2711C12.2228 28.1464 12.1516 27.878 12.2388 27.6571L13.0514 26.0106C13.2795 25.545 13.8242 25.3246 14.3095 25.5162L15.063 25.8138C15.5355 26.0004 15.7954 26.5385 15.6439 27.0344L15.1123 28.7918C15.0251 29.0127 14.7949 29.147 14.5573 29.1133Z" stroke="#333333" stroke-miterlimit="10" stroke-linecap="round" stroke-linejoin="round"/>
<path d="M7.44226 40.8867C8.2011 41.0212 8.92905 41.3086 9.57502 41.7289C9.77673 41.8536 9.8479 42.122 9.76068 42.3429L8.94812 43.9894C8.71999 44.455 8.1753 44.6754 7.69001 44.4838L6.93652 44.1862C6.46399 43.9996 6.2041 43.4615 6.35561 42.9656L6.88721 41.2082C6.97442 40.9873 7.20463 40.853 7.44226 40.8867Z" stroke="#333333" stroke-miterlimit="10" stroke-linecap="round" stroke-linejoin="round"/>
<circle cx="34.9995" cy="11" r="4.99999" stroke="#333333"/>
<path d="M33.2701 4.14288C32.6519 4.56758 31.9515 4.86838 31.2179 5.02417C30.9932 5.07721 30.7618 4.94496 30.6725 4.73715L30.1201 3.07781C29.9627 2.60971 30.1914 2.09163 30.6584 1.89109L31.3834 1.57974C31.8381 1.38448 32.3836 1.5701 32.6146 2.00654L33.4375 3.54979C33.5267 3.75759 33.458 4.00427 33.2701 4.14288Z" stroke="#333333" stroke-miterlimit="10" stroke-linecap="round" stroke-linejoin="round"/>
<path d="M36.7289 17.8561C37.3471 17.4314 38.0475 17.1306 38.7811 16.9749C39.0058 16.9218 39.2373 17.0541 39.3265 17.2619L39.879 18.9212C40.0363 19.3893 39.8076 19.9074 39.3406 20.1079L38.6156 20.4193C38.1609 20.6145 37.6155 20.4289 37.3844 19.9925L36.5615 18.4492C36.4723 18.2414 36.541 17.9948 36.7289 17.8561Z" stroke="#333333" stroke-miterlimit="10" stroke-linecap="round" stroke-linejoin="round"/>
<path d="M41.8564 9.27032C41.4317 8.65219 41.1309 7.95174 40.9751 7.21812C40.9221 6.99347 41.0543 6.76202 41.2621 6.67278L42.9215 6.1203C43.3896 5.96294 43.9076 6.19166 44.1082 6.65863L44.4195 7.38366C44.6148 7.83834 44.4292 8.3838 43.9927 8.61489L42.4495 9.43772C42.2417 9.52696 41.995 9.45823 41.8564 9.27032Z" stroke="#333333" stroke-miterlimit="10" stroke-linecap="round" stroke-linejoin="round"/>
<path d="M28.1436 12.7287C28.5683 13.3468 28.8691 14.0473 29.0249 14.7809C29.0779 15.0056 28.9457 15.237 28.7379 15.3262L27.0785 15.8787C26.6104 16.0361 26.0924 15.8074 25.8918 15.3404L25.5805 14.6154C25.3852 14.1607 25.5708 13.6152 26.0073 13.3841L27.5505 12.5613C27.7583 12.4721 28.005 12.5408 28.1436 12.7287Z" stroke="#333333" stroke-miterlimit="10" stroke-linecap="round" stroke-linejoin="round"/>
<path d="M40.8825 14.5624C41.0178 13.8037 41.3059 13.0761 41.7269 12.4305C41.8518 12.2289 42.1203 12.158 42.341 12.2455L43.9867 13.0597C44.452 13.2883 44.6719 13.8332 44.4798 14.3183L44.1814 15.0715C43.9944 15.5438 43.456 15.8032 42.9603 15.6512L41.2034 15.1178C40.9826 15.0303 40.8485 14.8 40.8825 14.5624Z" stroke="#333333" stroke-miterlimit="10" stroke-linecap="round" stroke-linejoin="round"/>
<path d="M29.1175 7.43664C28.9822 8.19533 28.6941 8.92297 28.2731 9.5685C28.1482 9.77009 27.8797 9.84098 27.659 9.75354L26.0133 8.93929C25.548 8.71068 25.3281 8.16578 25.5202 7.68069L25.8186 6.92751C26.0056 6.45518 26.544 6.19585 27.0397 6.34787L28.7966 6.88127C29.0174 6.96871 29.1515 7.19905 29.1175 7.43664Z" stroke="#333333" stroke-miterlimit="10" stroke-linecap="round" stroke-linejoin="round"/>
<path d="M38.579 5.12679C37.8207 4.98954 37.0938 4.69941 36.4494 4.27676C36.2482 4.15131 36.178 3.88266 36.266 3.66212L37.0846 2.01865C37.3145 1.55392 37.86 1.3355 38.3446 1.52892L39.0969 1.82923C39.5688 2.01756 39.8267 2.55666 39.6733 3.05193L39.1353 4.80738C39.0472 5.02792 38.8165 5.16143 38.579 5.12679Z" stroke="#333333" stroke-miterlimit="10" stroke-linecap="round" stroke-linejoin="round"/>
<path d="M31.4205 16.8732C32.1788 17.0105 32.9057 17.3006 33.5501 17.7232C33.7513 17.8487 33.8215 18.1173 33.7335 18.3379L32.9149 19.9813C32.685 20.4461 32.1395 20.6645 31.655 20.4711L30.9026 20.1708C30.4307 19.9824 30.1728 19.4433 30.3262 18.9481L30.8643 17.1926C30.9523 16.9721 31.183 16.8386 31.4205 16.8732Z" stroke="#333333" stroke-miterlimit="10" stroke-linecap="round" stroke-linejoin="round"/>
<circle cx="35.0001" cy="35.0001" r="5.00006" stroke="#333333"/>
<path d="M36.1164 28.0176C35.3809 28.164 34.6185 28.164 33.883 28.0176C33.6556 27.9777 33.4951 27.7649 33.4951 27.5387L33.6422 25.796C33.6824 25.3038 34.0969 24.918 34.6052 24.918H35.3942C35.8891 24.918 36.317 25.3038 36.3572 25.796L36.5043 27.5387C36.5043 27.7649 36.3438 27.9644 36.1164 28.0176Z" stroke="#333333" stroke-miterlimit="10" stroke-linecap="round" stroke-linejoin="round"/>
<path d="M33.8831 41.9824C34.6187 41.836 35.381 41.836 36.1165 41.9824C36.3439 42.0223 36.5044 42.2351 36.5044 42.4613L36.3573 44.204C36.3172 44.6962 35.9026 45.082 35.3944 45.082L34.6053 45.082C34.1104 45.082 33.6825 44.6962 33.6424 44.204L33.4952 42.4613C33.4952 42.2351 33.6557 42.0356 33.8831 41.9824Z" stroke="#333333" stroke-miterlimit="10" stroke-linecap="round" stroke-linejoin="round"/>
<path d="M41.9824 36.1164C41.836 35.3809 41.836 34.6185 41.9824 33.883C42.0223 33.6556 42.2351 33.4951 42.4613 33.4951L44.204 33.6422C44.6962 33.6824 45.082 34.0969 45.082 34.6052L45.082 35.3942C45.082 35.8891 44.6962 36.317 44.204 36.3572L42.4613 36.5043C42.2351 36.5043 42.0356 36.3438 41.9824 36.1164Z" stroke="#333333" stroke-miterlimit="10" stroke-linecap="round" stroke-linejoin="round"/>
<path d="M28.0176 33.8836C28.164 34.6191 28.164 35.3815 28.0176 36.117C27.9777 36.3444 27.7649 36.5049 27.5387 36.5049L25.796 36.3578C25.3038 36.3176 24.918 35.9031 24.918 35.3948L24.918 34.6058C24.918 34.1109 25.3038 33.683 25.796 33.6428L27.5387 33.4957C27.7649 33.4957 27.9644 33.6562 28.0176 33.8836Z" stroke="#333333" stroke-miterlimit="10" stroke-linecap="round" stroke-linejoin="round"/>
<path d="M38.9994 40.5952C39.4231 39.9514 39.975 39.3965 40.6165 38.9695C40.8109 38.8335 41.0855 38.8743 41.2539 39.0418L42.4447 40.4393C42.7821 40.833 42.7691 41.4205 42.4011 41.7904L41.8298 42.3648C41.4715 42.725 40.8745 42.7508 40.479 42.4155L39.0751 41.2321C38.9068 41.0647 38.8744 40.8001 38.9994 40.5952Z" stroke="#333333" stroke-miterlimit="10" stroke-linecap="round" stroke-linejoin="round"/>
<path d="M31.001 29.4048C30.5774 30.0486 30.0255 30.6035 29.384 31.0305C29.1896 31.1665 28.915 31.1257 28.7466 30.9582L27.5558 29.5607C27.2184 29.167 27.2314 28.5795 27.5994 28.2096L28.1707 27.6352C28.5289 27.275 29.126 27.2492 29.5215 27.5845L30.9253 28.7679C31.0937 28.9353 31.126 29.1999 31.001 29.4048Z" stroke="#333333" stroke-miterlimit="10" stroke-linecap="round" stroke-linejoin="round"/>
<path d="M40.6062 31.0159C39.9636 30.5905 39.4102 30.0371 38.9848 29.3945C38.8494 29.1998 38.8909 28.9252 39.0588 28.7573L40.4595 27.5702C40.8541 27.2339 41.4415 27.2484 41.8105 27.6174L42.3833 28.1902C42.7426 28.5494 42.7668 29.1466 42.4305 29.5412L41.2434 30.9419C41.0755 31.1098 40.8108 31.1414 40.6062 31.0159Z" stroke="#333333" stroke-miterlimit="10" stroke-linecap="round" stroke-linejoin="round"/>
<path d="M29.3938 38.9841C30.0364 39.4095 30.5898 39.9629 31.0152 40.6055C31.1506 40.8002 31.1091 41.0748 30.9412 41.2427L29.5405 42.4298C29.1459 42.7661 28.5585 42.7516 28.1895 42.3826L27.6167 41.8098C27.2574 41.4506 27.2332 40.8534 27.5695 40.4588L28.7566 39.0581C28.9245 38.8902 29.1892 38.8586 29.3938 38.9841Z" stroke="#333333" stroke-miterlimit="10" stroke-linecap="round" stroke-linejoin="round"/>
</svg>
