<svg width="48" height="32" viewBox="0 0 48 32" fill="none" xmlns="http://www.w3.org/2000/svg">
<path d="M1.17228 0.636788C2.3945 0.454404 3.66117 0.454404 4.88339 0.636788C5.26117 0.686529 5.52783 0.951813 5.52783 1.23368L5.28339 3.4057C5.21672 4.01917 4.52783 4.5 3.68339 4.5L2.37228 4.5C1.55005 4.5 0.838943 4.01917 0.772276 3.4057L0.527832 1.23368C0.527832 0.951813 0.794498 0.703109 1.17228 0.636788Z" stroke="#333333" stroke-miterlimit="10" stroke-linecap="round" stroke-linejoin="round"/>
<path d="M19.1166 0.636788C20.3388 0.454404 21.6055 0.454404 22.8277 0.636788C23.2055 0.686529 23.4722 0.951813 23.4722 1.23368L23.2277 3.4057C23.1611 4.01917 22.4722 4.5 21.6277 4.5L20.3166 4.5C19.4944 4.5 18.7833 4.01917 18.7166 3.4057L18.4722 1.23368C18.4722 0.951813 18.7388 0.703109 19.1166 0.636788Z" stroke="#333333" stroke-miterlimit="10" stroke-linecap="round" stroke-linejoin="round"/>
<path d="M7.17228 0.636788C8.3945 0.454404 9.66117 0.454404 10.8834 0.636788C11.2612 0.686529 11.5278 0.951813 11.5278 1.23368L11.2834 3.4057C11.2167 4.01917 10.5278 4.5 9.68339 4.5L8.37228 4.5C7.55005 4.5 6.83894 4.01917 6.77228 3.4057L6.52783 1.23368C6.52783 0.951813 6.7945 0.703109 7.17228 0.636788Z" stroke="#333333" stroke-miterlimit="10" stroke-linecap="round" stroke-linejoin="round"/>
<path d="M25.1166 0.636788C26.3388 0.454404 27.6055 0.454404 28.8277 0.636788C29.2055 0.686529 29.4722 0.951813 29.4722 1.23368L29.2277 3.4057C29.1611 4.01917 28.4722 4.5 27.6277 4.5L26.3166 4.5C25.4944 4.5 24.7833 4.01917 24.7166 3.4057L24.4722 1.23368C24.4722 0.951813 24.7388 0.703109 25.1166 0.636788Z" stroke="#333333" stroke-miterlimit="10" stroke-linecap="round" stroke-linejoin="round"/>
<path d="M37.1166 0.636788C38.3388 0.454404 39.6055 0.454404 40.8277 0.636788C41.2055 0.686529 41.4722 0.951813 41.4722 1.23368L41.2277 3.4057C41.1611 4.01917 40.4722 4.5 39.6277 4.5L38.3166 4.5C37.4944 4.5 36.7833 4.01917 36.7166 3.4057L36.4722 1.23368C36.4722 0.951813 36.7388 0.703109 37.1166 0.636788Z" stroke="#333333" stroke-miterlimit="10" stroke-linecap="round" stroke-linejoin="round"/>
<path d="M13.1723 0.636788C14.3945 0.454404 15.6612 0.454404 16.8834 0.636788C17.2612 0.686529 17.5278 0.951813 17.5278 1.23368L17.2834 3.4057C17.2167 4.01917 16.5278 4.5 15.6834 4.5L14.3723 4.5C13.5501 4.5 12.8389 4.01917 12.7723 3.4057L12.5278 1.23368C12.5278 0.951813 12.7945 0.703109 13.1723 0.636788Z" stroke="#333333" stroke-miterlimit="10" stroke-linecap="round" stroke-linejoin="round"/>
<path d="M31.1166 0.636788C32.3388 0.454404 33.6055 0.454404 34.8277 0.636788C35.2055 0.686529 35.4722 0.951813 35.4722 1.23368L35.2277 3.4057C35.1611 4.01917 34.4722 4.5 33.6277 4.5L32.3166 4.5C31.4944 4.5 30.7833 4.01917 30.7166 3.4057L30.4722 1.23368C30.4722 0.951813 30.7388 0.703109 31.1166 0.636788Z" stroke="#333333" stroke-miterlimit="10" stroke-linecap="round" stroke-linejoin="round"/>
<path d="M43.1166 0.636788C44.3388 0.454404 45.6055 0.454404 46.8277 0.636788C47.2055 0.686529 47.4722 0.951813 47.4722 1.23368L47.2277 3.4057C47.1611 4.01917 46.4722 4.5 45.6277 4.5L44.3166 4.5C43.4944 4.5 42.7833 4.01917 42.7166 3.4057L42.4722 1.23368C42.4722 0.951813 42.7388 0.703109 43.1166 0.636788Z" stroke="#333333" stroke-miterlimit="10" stroke-linecap="round" stroke-linejoin="round"/>
<path d="M1.17228 9.63679C2.3945 9.4544 3.66117 9.4544 4.88339 9.63679C5.26117 9.68653 5.52783 9.95181 5.52783 10.2337L5.28339 12.4057C5.21672 13.0192 4.52783 13.5 3.68339 13.5H2.37228C1.55005 13.5 0.838943 13.0192 0.772276 12.4057L0.527832 10.2337C0.527832 9.95181 0.794498 9.70311 1.17228 9.63679Z" stroke="#333333" stroke-miterlimit="10" stroke-linecap="round" stroke-linejoin="round"/>
<path d="M19.1166 9.63679C20.3388 9.4544 21.6055 9.4544 22.8277 9.63679C23.2055 9.68653 23.4722 9.95181 23.4722 10.2337L23.2277 12.4057C23.1611 13.0192 22.4722 13.5 21.6277 13.5H20.3166C19.4944 13.5 18.7833 13.0192 18.7166 12.4057L18.4722 10.2337C18.4722 9.95181 18.7388 9.70311 19.1166 9.63679Z" stroke="#333333" stroke-miterlimit="10" stroke-linecap="round" stroke-linejoin="round"/>
<path d="M7.17228 9.63679C8.3945 9.4544 9.66117 9.4544 10.8834 9.63679C11.2612 9.68653 11.5278 9.95181 11.5278 10.2337L11.2834 12.4057C11.2167 13.0192 10.5278 13.5 9.68339 13.5H8.37228C7.55005 13.5 6.83894 13.0192 6.77228 12.4057L6.52783 10.2337C6.52783 9.95181 6.7945 9.70311 7.17228 9.63679Z" stroke="#333333" stroke-miterlimit="10" stroke-linecap="round" stroke-linejoin="round"/>
<path d="M25.1166 9.63679C26.3388 9.4544 27.6055 9.4544 28.8277 9.63679C29.2055 9.68653 29.4722 9.95181 29.4722 10.2337L29.2277 12.4057C29.1611 13.0192 28.4722 13.5 27.6277 13.5H26.3166C25.4944 13.5 24.7833 13.0192 24.7166 12.4057L24.4722 10.2337C24.4722 9.95181 24.7388 9.70311 25.1166 9.63679Z" stroke="#333333" stroke-miterlimit="10" stroke-linecap="round" stroke-linejoin="round"/>
<path d="M37.1166 9.63679C38.3388 9.4544 39.6055 9.4544 40.8277 9.63679C41.2055 9.68653 41.4722 9.95181 41.4722 10.2337L41.2277 12.4057C41.1611 13.0192 40.4722 13.5 39.6277 13.5H38.3166C37.4944 13.5 36.7833 13.0192 36.7166 12.4057L36.4722 10.2337C36.4722 9.95181 36.7388 9.70311 37.1166 9.63679Z" stroke="#333333" stroke-miterlimit="10" stroke-linecap="round" stroke-linejoin="round"/>
<path d="M13.1723 9.63679C14.3945 9.4544 15.6612 9.4544 16.8834 9.63679C17.2612 9.68653 17.5278 9.95181 17.5278 10.2337L17.2834 12.4057C17.2167 13.0192 16.5278 13.5 15.6834 13.5H14.3723C13.5501 13.5 12.8389 13.0192 12.7723 12.4057L12.5278 10.2337C12.5278 9.95181 12.7945 9.70311 13.1723 9.63679Z" stroke="#333333" stroke-miterlimit="10" stroke-linecap="round" stroke-linejoin="round"/>
<path d="M31.1166 9.63679C32.3388 9.4544 33.6055 9.4544 34.8277 9.63679C35.2055 9.68653 35.4722 9.95181 35.4722 10.2337L35.2277 12.4057C35.1611 13.0192 34.4722 13.5 33.6277 13.5H32.3166C31.4944 13.5 30.7833 13.0192 30.7166 12.4057L30.4722 10.2337C30.4722 9.95181 30.7388 9.70311 31.1166 9.63679Z" stroke="#333333" stroke-miterlimit="10" stroke-linecap="round" stroke-linejoin="round"/>
<path d="M43.1166 9.63679C44.3388 9.4544 45.6055 9.4544 46.8277 9.63679C47.2055 9.68653 47.4722 9.95181 47.4722 10.2337L47.2277 12.4057C47.1611 13.0192 46.4722 13.5 45.6277 13.5H44.3166C43.4944 13.5 42.7833 13.0192 42.7166 12.4057L42.4722 10.2337C42.4722 9.95181 42.7388 9.70311 43.1166 9.63679Z" stroke="#333333" stroke-miterlimit="10" stroke-linecap="round" stroke-linejoin="round"/>
<path d="M1.17228 18.6368C2.3945 18.4544 3.66117 18.4544 4.88339 18.6368C5.26117 18.6865 5.52783 18.9518 5.52783 19.2337L5.28339 21.4057C5.21672 22.0192 4.52783 22.5 3.68339 22.5H2.37228C1.55005 22.5 0.838943 22.0192 0.772276 21.4057L0.527832 19.2337C0.527832 18.9518 0.794498 18.7031 1.17228 18.6368Z" stroke="#333333" stroke-miterlimit="10" stroke-linecap="round" stroke-linejoin="round"/>
<path d="M19.1166 18.6368C20.3388 18.4544 21.6055 18.4544 22.8277 18.6368C23.2055 18.6865 23.4722 18.9518 23.4722 19.2337L23.2277 21.4057C23.1611 22.0192 22.4722 22.5 21.6277 22.5H20.3166C19.4944 22.5 18.7833 22.0192 18.7166 21.4057L18.4722 19.2337C18.4722 18.9518 18.7388 18.7031 19.1166 18.6368Z" stroke="#333333" stroke-miterlimit="10" stroke-linecap="round" stroke-linejoin="round"/>
<path d="M7.17228 18.6368C8.3945 18.4544 9.66117 18.4544 10.8834 18.6368C11.2612 18.6865 11.5278 18.9518 11.5278 19.2337L11.2834 21.4057C11.2167 22.0192 10.5278 22.5 9.68339 22.5H8.37228C7.55005 22.5 6.83894 22.0192 6.77228 21.4057L6.52783 19.2337C6.52783 18.9518 6.7945 18.7031 7.17228 18.6368Z" stroke="#333333" stroke-miterlimit="10" stroke-linecap="round" stroke-linejoin="round"/>
<path d="M25.1166 18.6368C26.3388 18.4544 27.6055 18.4544 28.8277 18.6368C29.2055 18.6865 29.4722 18.9518 29.4722 19.2337L29.2277 21.4057C29.1611 22.0192 28.4722 22.5 27.6277 22.5H26.3166C25.4944 22.5 24.7833 22.0192 24.7166 21.4057L24.4722 19.2337C24.4722 18.9518 24.7388 18.7031 25.1166 18.6368Z" stroke="#333333" stroke-miterlimit="10" stroke-linecap="round" stroke-linejoin="round"/>
<path d="M37.1166 18.6368C38.3388 18.4544 39.6055 18.4544 40.8277 18.6368C41.2055 18.6865 41.4722 18.9518 41.4722 19.2337L41.2277 21.4057C41.1611 22.0192 40.4722 22.5 39.6277 22.5H38.3166C37.4944 22.5 36.7833 22.0192 36.7166 21.4057L36.4722 19.2337C36.4722 18.9518 36.7388 18.7031 37.1166 18.6368Z" stroke="#333333" stroke-miterlimit="10" stroke-linecap="round" stroke-linejoin="round"/>
<path d="M13.1723 18.6368C14.3945 18.4544 15.6612 18.4544 16.8834 18.6368C17.2612 18.6865 17.5278 18.9518 17.5278 19.2337L17.2834 21.4057C17.2167 22.0192 16.5278 22.5 15.6834 22.5H14.3723C13.5501 22.5 12.8389 22.0192 12.7723 21.4057L12.5278 19.2337C12.5278 18.9518 12.7945 18.7031 13.1723 18.6368Z" stroke="#333333" stroke-miterlimit="10" stroke-linecap="round" stroke-linejoin="round"/>
<path d="M31.1166 18.6368C32.3388 18.4544 33.6055 18.4544 34.8277 18.6368C35.2055 18.6865 35.4722 18.9518 35.4722 19.2337L35.2277 21.4057C35.1611 22.0192 34.4722 22.5 33.6277 22.5H32.3166C31.4944 22.5 30.7833 22.0192 30.7166 21.4057L30.4722 19.2337C30.4722 18.9518 30.7388 18.7031 31.1166 18.6368Z" stroke="#333333" stroke-miterlimit="10" stroke-linecap="round" stroke-linejoin="round"/>
<path d="M43.1166 18.6368C44.3388 18.4544 45.6055 18.4544 46.8277 18.6368C47.2055 18.6865 47.4722 18.9518 47.4722 19.2337L47.2277 21.4057C47.1611 22.0192 46.4722 22.5 45.6277 22.5H44.3166C43.4944 22.5 42.7833 22.0192 42.7166 21.4057L42.4722 19.2337C42.4722 18.9518 42.7388 18.7031 43.1166 18.6368Z" stroke="#333333" stroke-miterlimit="10" stroke-linecap="round" stroke-linejoin="round"/>
<path d="M1.17228 27.6368C2.3945 27.4544 3.66117 27.4544 4.88339 27.6368C5.26117 27.6865 5.52783 27.9518 5.52783 28.2337L5.28339 30.4057C5.21672 31.0192 4.52783 31.5 3.68339 31.5H2.37228C1.55005 31.5 0.838943 31.0192 0.772276 30.4057L0.527832 28.2337C0.527832 27.9518 0.794498 27.7031 1.17228 27.6368Z" stroke="#333333" stroke-miterlimit="10" stroke-linecap="round" stroke-linejoin="round"/>
<path d="M19.1166 27.6368C20.3388 27.4544 21.6055 27.4544 22.8277 27.6368C23.2055 27.6865 23.4722 27.9518 23.4722 28.2337L23.2277 30.4057C23.1611 31.0192 22.4722 31.5 21.6277 31.5H20.3166C19.4944 31.5 18.7833 31.0192 18.7166 30.4057L18.4722 28.2337C18.4722 27.9518 18.7388 27.7031 19.1166 27.6368Z" stroke="#333333" stroke-miterlimit="10" stroke-linecap="round" stroke-linejoin="round"/>
<path d="M7.17228 27.6368C8.3945 27.4544 9.66117 27.4544 10.8834 27.6368C11.2612 27.6865 11.5278 27.9518 11.5278 28.2337L11.2834 30.4057C11.2167 31.0192 10.5278 31.5 9.68339 31.5H8.37228C7.55005 31.5 6.83894 31.0192 6.77228 30.4057L6.52783 28.2337C6.52783 27.9518 6.7945 27.7031 7.17228 27.6368Z" stroke="#333333" stroke-miterlimit="10" stroke-linecap="round" stroke-linejoin="round"/>
<path d="M25.1166 27.6368C26.3388 27.4544 27.6055 27.4544 28.8277 27.6368C29.2055 27.6865 29.4722 27.9518 29.4722 28.2337L29.2277 30.4057C29.1611 31.0192 28.4722 31.5 27.6277 31.5H26.3166C25.4944 31.5 24.7833 31.0192 24.7166 30.4057L24.4722 28.2337C24.4722 27.9518 24.7388 27.7031 25.1166 27.6368Z" stroke="#333333" stroke-miterlimit="10" stroke-linecap="round" stroke-linejoin="round"/>
<path d="M37.1166 27.6368C38.3388 27.4544 39.6055 27.4544 40.8277 27.6368C41.2055 27.6865 41.4722 27.9518 41.4722 28.2337L41.2277 30.4057C41.1611 31.0192 40.4722 31.5 39.6277 31.5H38.3166C37.4944 31.5 36.7833 31.0192 36.7166 30.4057L36.4722 28.2337C36.4722 27.9518 36.7388 27.7031 37.1166 27.6368Z" stroke="#333333" stroke-miterlimit="10" stroke-linecap="round" stroke-linejoin="round"/>
<path d="M13.1723 27.6368C14.3945 27.4544 15.6612 27.4544 16.8834 27.6368C17.2612 27.6865 17.5278 27.9518 17.5278 28.2337L17.2834 30.4057C17.2167 31.0192 16.5278 31.5 15.6834 31.5H14.3723C13.5501 31.5 12.8389 31.0192 12.7723 30.4057L12.5278 28.2337C12.5278 27.9518 12.7945 27.7031 13.1723 27.6368Z" stroke="#333333" stroke-miterlimit="10" stroke-linecap="round" stroke-linejoin="round"/>
<path d="M31.1166 27.6368C32.3388 27.4544 33.6055 27.4544 34.8277 27.6368C35.2055 27.6865 35.4722 27.9518 35.4722 28.2337L35.2277 30.4057C35.1611 31.0192 34.4722 31.5 33.6277 31.5H32.3166C31.4944 31.5 30.7833 31.0192 30.7166 30.4057L30.4722 28.2337C30.4722 27.9518 30.7388 27.7031 31.1166 27.6368Z" stroke="#333333" stroke-miterlimit="10" stroke-linecap="round" stroke-linejoin="round"/>
<path d="M43.1166 27.6368C44.3388 27.4544 45.6055 27.4544 46.8277 27.6368C47.2055 27.6865 47.4722 27.9518 47.4722 28.2337L47.2277 30.4057C47.1611 31.0192 46.4722 31.5 45.6277 31.5H44.3166C43.4944 31.5 42.7833 31.0192 42.7166 30.4057L42.4722 28.2337C42.4722 27.9518 42.7388 27.7031 43.1166 27.6368Z" stroke="#333333" stroke-miterlimit="10" stroke-linecap="round" stroke-linejoin="round"/>
</svg>
