<svg width="38" height="30" viewBox="0 0 38 30" fill="none" xmlns="http://www.w3.org/2000/svg">
<path d="M18.9661 19.3263C28.6997 19.3263 36.5904 15.2355 36.5904 10.1892C36.5904 5.14285 28.6997 1.052 18.9661 1.052C9.23246 1.052 1.3418 5.14285 1.3418 10.1892C1.3418 15.2355 9.23246 19.3263 18.9661 19.3263Z" stroke-miterlimit="10"/>
<path d="M1.3418 10.1891V11.5736C1.3418 16.6267 9.26589 20.7107 18.9661 20.7107C28.6663 20.7107 36.5904 16.6267 36.5904 11.5736V10.1891" stroke-miterlimit="10"/>
<path d="M10.29 19.4647V22.2336" stroke-miterlimit="10" stroke-linecap="round"/>
<path d="M15.6182 20.4338V24.7948" stroke-miterlimit="10" stroke-linecap="round"/>
<path d="M17.9412 28.948V27.1482C17.9412 26.3868 17.5313 25.6946 16.7799 25.3485L8.99244 21.6106C8.51426 21.4029 7.96777 21.749 7.96777 22.2335V24.1717" stroke-miterlimit="10" stroke-linecap="round"/>
<path d="M27.709 19.4647V22.1643" stroke-miterlimit="10" stroke-linecap="round"/>
<path d="M20.0586 20.5723V21.5414" stroke-miterlimit="10" stroke-linecap="round"/>
<path d="M29.9633 26.3868V24.587C29.9633 23.8256 29.5535 23.1334 28.8021 22.7873L23.6787 20.2953" stroke-miterlimit="10" stroke-linecap="round"/>
</svg>
