<svg width="24" height="32" viewBox="0 0 24 32" fill="none" xmlns="http://www.w3.org/2000/svg">
<g clip-path="url(#clip0_3062_6042)">
<path d="M8.24059 21.4049L7.15625 24.6264" stroke-miterlimit="10" stroke-linecap="round" stroke-linejoin="round"/>
<path d="M9.18066 11.0962L9.32524 12.0984" stroke-miterlimit="10" stroke-linecap="round" stroke-linejoin="round"/>
<path d="M0.361328 31.3557L3.25289 22.6935L2.96374 21.3334L0.505906 7.08728L7.30109 0.357971" stroke-miterlimit="10" stroke-linecap="round" stroke-linejoin="round"/>
<path d="M2.96387 21.3333H15.1084C16.0482 21.3333 16.7711 22.0492 16.7711 22.9798V31.642" stroke-miterlimit="10" stroke-linecap="round" stroke-linejoin="round"/>
<path d="M2.31309 17.3244L3.03598 17.038C3.97574 16.6085 4.55405 15.6062 4.33718 14.5324L3.25285 8.59058C3.10827 7.73151 2.38538 7.15881 1.51791 7.08722H0.505859" stroke-miterlimit="10" stroke-linejoin="round"/>
<path d="M2.53027 18.8278H13.8074C14.8917 18.8278 15.6869 19.6868 15.6869 20.6891V21.4049L22.4821 14.6756V13.9597C22.4821 12.8859 21.6146 12.0984 20.6026 12.0984H9.32545" stroke-miterlimit="10" stroke-linejoin="round"/>
<path d="M22.5547 14.6756C23.2053 14.8904 23.639 15.5347 23.639 16.2505V24.9127" stroke-miterlimit="10" stroke-linecap="round" stroke-linejoin="round"/>
<path d="M2.53027 18.8278L9.32545 12.0984" stroke-miterlimit="10" stroke-linecap="round" stroke-linejoin="round"/>
<path d="M3.46973 16.6801L10.2649 9.95081C10.9155 9.44969 11.277 8.59063 11.1324 7.73157L10.048 1.86132C9.90346 1.00226 9.18057 0.429554 8.3131 0.357965L7.30105 0.286377" stroke-miterlimit="10" stroke-linecap="round" stroke-linejoin="round"/>
</g>
<defs>
<clipPath id="clip0_3062_6042">
<rect width="24" height="32" fill="white"/>
</clipPath>
</defs>
</svg>
