<svg width="42" height="42" viewBox="0 0 42 42" fill="none" xmlns="http://www.w3.org/2000/svg">
<path d="M30.5 20.5C30.5 26.0461 26.224 30.5 21 30.5C15.776 30.5 11.5 26.0461 11.5 20.5C11.5 14.9539 15.776 10.5 21 10.5C26.224 10.5 30.5 14.9539 30.5 20.5Z"/>
<path d="M23.1322 7.66984C21.7279 7.9492 20.2726 7.9492 18.8684 7.66984C18.4343 7.59365 18.1279 7.1873 18.1279 6.75555L18.4088 3.42857C18.4854 2.48889 19.2769 1.75238 20.2471 1.75238H21.7535C22.6981 1.75238 23.5152 2.48889 23.5918 3.42857L23.8726 6.75555C23.8726 7.1873 23.5662 7.56825 23.1322 7.66984Z" stroke-miterlimit="10" stroke-linecap="round" stroke-linejoin="round"/>
<path d="M18.8678 34.3302C20.2721 34.0508 21.7274 34.0508 23.1316 34.3302C23.5657 34.4064 23.8721 34.8127 23.8721 35.2444L23.5912 38.5714C23.5146 39.5111 22.7231 40.2476 21.7529 40.2476L20.2465 40.2476C19.3019 40.2476 18.4848 39.5111 18.4082 38.5714L18.1274 35.2444C18.1274 34.8127 18.4338 34.4317 18.8678 34.3302Z" stroke-miterlimit="10" stroke-linecap="round" stroke-linejoin="round"/>
<path d="M34.3306 23.1319C34.0512 21.7277 34.0512 20.2723 34.3306 18.8681C34.4068 18.434 34.8131 18.1277 35.2449 18.1277L38.5719 18.4085C39.5115 18.4851 40.248 19.2766 40.248 20.2468L40.248 21.7532C40.248 22.6979 39.5115 23.5149 38.5719 23.5915L35.2449 23.8723C34.8131 23.8723 34.4322 23.566 34.3306 23.1319Z" stroke-miterlimit="10" stroke-linecap="round" stroke-linejoin="round"/>
<path d="M7.66941 18.8681C7.94878 20.2723 7.94878 21.7277 7.66941 23.1319C7.59322 23.566 7.18687 23.8723 6.75513 23.8723L3.42814 23.5915C2.48846 23.5149 1.75195 22.7234 1.75195 21.7532L1.75195 20.2468C1.75195 19.3021 2.48846 18.4851 3.42814 18.4085L6.75513 18.1277C7.18687 18.1277 7.56783 18.434 7.66941 18.8681Z" stroke-miterlimit="10" stroke-linecap="round" stroke-linejoin="round"/>
<path d="M28.6357 31.6821C29.4444 30.4531 30.4981 29.3937 31.7228 28.5785C32.0938 28.3189 32.6181 28.3968 32.9395 28.7165L35.2129 31.3845C35.857 32.1361 35.8322 33.2576 35.1297 33.9638L34.0391 35.0603C33.3551 35.7479 32.2153 35.7972 31.4603 35.1572L28.7802 32.898C28.4588 32.5783 28.397 32.0732 28.6357 31.6821Z" stroke-miterlimit="10" stroke-linecap="round" stroke-linejoin="round"/>
<path d="M13.3643 10.3179C12.5556 11.5469 11.5019 12.6063 10.2772 13.4215C9.90621 13.6811 9.38188 13.6032 9.06047 13.2835L6.7871 10.6155C6.14302 9.86389 6.1678 8.7424 6.87026 8.03619L7.96093 6.93971C8.6449 6.25208 9.78473 6.20275 10.5397 6.84282L13.2198 9.10197C13.5412 9.42167 13.603 9.92677 13.3643 10.3179Z" stroke-miterlimit="10" stroke-linecap="round" stroke-linejoin="round"/>
<path d="M31.7033 13.393C30.4764 12.581 29.4199 11.5245 28.6079 10.2976C28.3494 9.92598 28.4286 9.40186 28.7492 9.08131L31.4232 6.81503C32.1765 6.17296 33.298 6.20072 34.0023 6.90506L35.0959 7.99864C35.7817 8.68444 35.828 9.8244 35.1859 10.5777L32.9196 13.2517C32.5991 13.5723 32.0938 13.6327 31.7033 13.393Z" stroke-miterlimit="10" stroke-linecap="round" stroke-linejoin="round"/>
<path d="M10.2967 28.607C11.5236 29.419 12.5801 30.4755 13.3921 31.7024C13.6506 32.074 13.5714 32.5981 13.2508 32.9187L10.5768 35.185C9.82347 35.827 8.70205 35.7993 7.99771 35.0949L6.90413 34.0014C6.21833 33.3156 6.17203 32.1756 6.8141 31.4223L9.08037 28.7483C9.40093 28.4277 9.90619 28.3673 10.2967 28.607Z" stroke-miterlimit="10" stroke-linecap="round" stroke-linejoin="round"/>
</svg>
